<?xml version="1.0" encoding="utf-8"?>
<!-- Generator: Adobe Illustrator 25.0.1, SVG Export Plug-In . SVG Version: 6.00 Build 0)  -->
<svg version="1.1" xmlns="http://www.w3.org/2000/svg" xmlns:xlink="http://www.w3.org/1999/xlink" x="0px" y="0px"
	 viewBox="0 0 474 474" style="enable-background:new 0 0 474 474;" xml:space="preserve">
<style type="text/css">
	.st0{fill:#1F2653;}
	.st1{display:none;}
	.st2{display:inline;fill:#29262A;}
	.st3{display:inline;fill:#1F2653;}
	.st4{fill:#ECD53F;}
	.st5{display:none;fill:#F6F8F3;}
	.st6{fill:#F6F8F3;}
</style>
<g id="Layer_2">
	<circle class="st0" cx="236" cy="236.9" r="222.6"/>
</g>
<g id="Layer_3">
</g>
<g id="Layer_1">
	<g id="layer101" class="st1">
		<path class="st2" d="M454.5,201.5c-0.9-4.9-1.7-10.5-1.6-12.2c0-1.8-0.3-3.3-0.8-3.3s-1.2-1.6-1.6-3.6c-0.3-2-2.7-9.5-5.1-16.7
			c-2.5-7.3-4.6-14-4.7-14.9c-0.1-0.9-0.5-1.4-0.9-1.2c-0.4,0.3-0.8-0.2-0.8-1.1c0-0.6-0.3-1.5-0.7-2.5c-0.3-0.5-0.5-1-0.8-1.4
			c0,0,0,0,0-0.1c-0.2-0.3-0.3-0.6-0.5-0.8c-0.5-0.9-1.1-1.9-1.6-2.8c-0.2,0-0.3-0.1-0.3-0.4c-0.3-0.5-0.6-1-0.9-1.6
			c-0.1,0-0.1-0.1-0.1-0.2c-9.5-16.6-19.4-33.1-31.5-47.9c-1.1-0.9-2.4-2-3.7-3.3c-2.9-3-4.9-5.4-4.5-5.4c0.3,0,0.3-0.2,0.1-0.6
			c-0.9-0.9-1.7-1.8-2.6-2.8c-0.4-0.2-0.7-0.3-0.9-0.1c-0.4,0.2-2.7-1.6-5.1-4.1c-4.1-4.2-27.2-22.4-28.5-22.4c-0.6,0-2.1-1-3.6-2.1
			c-0.3-0.1-0.6-0.2-0.9-0.3c-2.7-1.3-5.5-2.5-8.2-3.8c-1.2-0.6-2-1.8-2.3-3.1c-1.5-0.6-3.5-1.5-5.6-2.6c-3.3-1.7-8.1-4.1-11.7-5.7
			c-0.7,0.4-1.5,0.6-2.6,0.6c-5.1-0.1-9.8-2-13.1-5.9c-0.4-0.4-0.6-0.9-0.9-1.4c-0.5-0.2-0.9-0.3-1.1-0.4c-0.5-0.1-5.9-1.6-11.8-3.2
			c-6-1.7-15.4-3.8-21-4.7c-5.6-0.9-10.9-2-11.7-2.4c-0.8-0.4-12.3-0.7-25.5-0.6c-17.9,0.1-26.7,0.6-34.5,1.9
			c-11.8,2-31.9,6.8-38.3,9.2c-10.5,4-19.8,7.9-26.7,11.4c-1,0.5-1.9,0.9-2.8,1.3c-0.2,0.3-0.4,0.6-0.7,0.9
			c-5.7,5.9-13.3,8.2-20.2,12.2C106.6,57.8,100,64.3,93,69.6c-4,3-7.9,6.2-11.8,9.5c-0.8,1-1.9,2.3-3.1,3.6
			c-3.4,3.8-6.6,6.7-7.1,6.6c-0.5-0.2-0.8,0-0.6,0.5c0.4,1.2-4,6.2-4.8,5.4c-0.3-0.4-0.5-0.2-0.3,0.3c0.5,1.6-7.8,12-9.4,11.8
			c-0.2,0.3-0.3,0.6-0.4,1c-0.2,1.2-1.1,3.2-2.6,5.4c-1.8,2.7-5.1,7.8-7.3,11.5S41,132,40.3,132c-0.6,0-1.5,0.5-1.9,1.2
			c-0.5,0.8-0.2,0.9,0.9,0.5c1.3-0.5,1,0.8-1.4,5.6c-1.7,3.4-3.5,6.4-4,6.5c-0.5,0.2-0.7,0.8-0.4,1.2c0.3,0.5-0.3,2.8-1.4,5.2
			c-5.7,12.2-11.8,34.7-14.7,53.8c-1.3,8-1.8,17.4-1.8,31c0,16.8,0.6,23.7,2.9,38.7c0.7,4.5,3.2,15.3,5.1,21.8
			c0.8,2.8,1.5,6,1.7,7.5c0.8,0.4,1.6,1.1,2.1,2.2c5.7,12.7,12.9,24.8,18,37.8c1,2.6,1.9,5.6,3,8.7c0.8,0.9,1.9,2.3,2.9,3.9
			c1.3,0.2,2.6,0.8,3.5,2.3c2.5,3.8,4.6,7.7,6.1,11.8c1.3,1.6,2.9,3.6,4.7,5.6c0.2,0.2,0.4,0.5,0.6,0.7c0.2,0.1,0.5,0.2,0.7,0.3
			c7.4,4,11,10.8,15.3,17.4c4.6,4.4,10.1,9.2,12.6,11c0.9,0.7,1.7,1.5,2.3,2.2c0.1,0,0.2,0,0.2,0c7,1.6,13.3,4.7,15.7,11.6
			c3.8,2.7,6.7,4.5,12,7.5c6,1.9,11.6,5.1,17.3,7.6c7.6,3.3,15.3,6.6,23.1,9.5c15.1,5.7,30,8.1,46,9.4c2,0.2,3.4,1.2,4.1,2.6
			c5.1,0.4,15.8,0.5,25.4,0.4c19.9-0.4,34.2-2.2,50.8-6.5c2.4-0.6,4.6-1,6.2-1.3c5.8-4,12.5-5,19.1-7c3.9-1.5,7.9-3.2,10.4-4.4
			c3.9-1.8,7.6-3.4,8.4-3.6c0.3-0.1,0.8-0.3,1.3-0.6c0.3-1.9,1.7-3.6,3.6-4.2c3.7-1.3,7-3.1,10.2-5.2c1.2-0.8,2.4-1,3.4-0.8
			c0.3-0.2,0.7-0.4,1-0.6c1.7-0.9,5.6-3.7,8.7-6c0.1-0.1,0.2-0.1,0.3-0.2c0.3-0.6,0.7-1.3,1.4-1.8c4-3.1,8-6.1,12.1-9.2
			c0.3-0.5,0.7-1.1,1.2-1.6c4.6-3.9,9-7.9,12.7-12.7c1.1-1.4,2.3-1.8,3.6-1.7c1.1-1.1,2-2.1,2.8-3c1.5-1.8,3-3.4,4.3-4.7
			c1.6-2.3,3.1-4.8,4.4-7.4c0.8-1.6,2.3-2.4,3.9-2.4c1.2-1.7,2.5-3.6,3.9-5.5c1-1.4,2.2-3,3.3-4.7c-0.6-1.3-0.7-2.9,0.3-4.5
			c5.7-9.2,12.7-18,18.1-27.5c1.3-2.9,3-6.3,4.2-8.5c1.7-4.1,3.1-8.4,3.8-12.9c0.2-1.3,0.8-2.2,1.6-2.8c2.1-6.4,4.5-14.9,5.5-19.1
			c0.9-4.2,1.9-8.1,2.3-8.7c0.3-0.5,0.6-2.3,0.7-4c0-1.6,0.6-8,1.3-14.2C457.6,245.6,456.9,213.8,454.5,201.5z"/>
	</g>
	<g id="layer102" class="st1">
		<path class="st3" d="M455.9,209c-0.4-1.4-1.3-6-1.9-10.2c-0.7-4.3-1.7-7.5-2.1-7.2c-0.5,0.3-0.9,0-0.9-0.5c0-0.6,0.5-1.1,1-1.1
			c0.6,0,1-0.9,1-2s-0.4-2-0.9-2s-1.2-1.6-1.6-3.6c-0.3-2-2.7-9.5-5.1-16.7c-2.5-7.3-4.6-14-4.7-14.9c-0.1-0.9-0.5-1.4-0.9-1.2
			c-0.4,0.3-0.8-0.2-0.8-1.1c0-0.6-0.3-1.5-0.7-2.5c-0.3-0.5-0.5-1-0.8-1.4c0,0,0,0,0-0.1c-0.2-0.3-0.3-0.6-0.5-0.8
			c-0.5-0.9-1.1-1.9-1.6-2.8c-0.2,0-0.3-0.1-0.3-0.4c-0.3-0.5-0.6-1-0.9-1.6c-0.1,0-0.1-0.1-0.1-0.2c-1.2-2.2-2.5-4.4-3.8-6.6
			c-0.8-0.2-1.2-0.5-0.9-0.9c0.1-0.1,0.1-0.3,0-0.7c-5.8-9.9-11.8-19.6-18.5-28.9c-0.1,0-0.3,0.1-0.4,0.1c-0.9,0-1.2-0.4-0.6-1.5
			c-2.3-3.1-4.6-6.1-7-9.1c-0.8-0.6-1.6-1.3-2.4-2.1c-2.1-2.2-4.3-3.6-4.8-3.3c-0.6,0.3-0.7,0.1-0.3-0.5c0.3-0.6,0.2-1.3-0.4-1.7
			s-0.8-1-0.5-1.4c0.1-0.2,0-0.5-0.1-0.9c-0.8-0.9-1.7-1.8-2.5-2.6c-0.5-0.3-0.8-0.4-0.8-0.1c0,0.5-2.8-1.9-6.2-5.2
			c-5.7-5.4-26.1-21.3-27.4-21.3c-0.6,0-2.1-1-3.6-2.1c-0.3-0.1-0.6-0.2-0.9-0.3c-2.7-1.3-5.5-2.5-8.2-3.8c-1.2-0.6-2-1.8-2.3-3.1
			c-1.5-0.6-3.5-1.5-5.6-2.6c-3.3-1.7-8.1-4.1-11.7-5.7c-0.7,0.4-1.5,0.6-2.6,0.6c-5.1-0.1-9.8-2-13.1-5.9c-0.3-0.4-0.6-0.9-0.8-1.3
			c-0.6-0.2-1-0.3-1.3-0.4c-0.6-0.1-2.8-0.7-4.7-1.4c-2-0.6-4-0.9-4.6-0.5c-0.5,0.3-1,0.2-1-0.3c0-1.2-18.4-5.6-23.7-5.7
			c-2.2,0-3.9-0.3-3.6-0.7c0.2-0.5-1.2-0.8-3.1-0.8c-1.9,0-3.7-0.4-4-0.8c-0.6-1-46.4-0.8-53.8,0.2c-3.2,0.5-5.5,1.3-5.2,1.8
			c0.3,0.5-0.5,0.6-1.8,0.3c-2.4-0.6-17.9,2.1-18.8,3.3c-0.3,0.4-1.3,0.7-2.2,0.8c-4.9,0.2-5.9,0.5-5.3,1.4c0.3,0.6-0.1,0.7-1,0.4
			c-2.8-1.1-31.9,10.2-30.8,11.9c0.3,0.6,0.1,0.7-0.5,0.3c-0.9-0.5-5.1,1.2-8.2,3c-0.2,0.2-0.3,0.4-0.5,0.6
			c-0.8,0.9-1.7,1.7-2.7,2.4c0.1,0.2,0,0.2-0.2,0.2c-3.9,3.1-8.5,5.1-12.9,7.3c0,0.1,0,0.2,0.1,0.2c0.4,0.6,0.1,0.7-0.6,0.3
			c-0.1-0.1-0.2-0.1-0.3-0.1c-1.2,0.6-2.4,1.2-3.5,1.9c-3.7,2.2-7.2,4.8-10.6,7.5c-0.1,0.6-0.3,0.9-0.5,0.6c0,0-0.1,0-0.2-0.1
			c-3.4,2.8-6.7,5.6-10.1,8.2c-3,2.3-6.1,4.7-9,7.1c0.8,0.7,1.1,1.1,0.4,0.8c-0.6-0.4-3.7,2.2-6.9,5.8c-3.2,3.6-6.2,6.2-6.6,6
			c-0.5-0.3-0.7-0.2-0.6,0.3c0.4,1.3-3.8,6.3-4.7,5.5c-0.3-0.4-0.5-0.2-0.3,0.3c0.5,1.6-7.8,12-9.4,11.8c-0.2,0.3-0.3,0.6-0.4,1
			c-0.2,1.2-1.1,3.2-2.6,5.4c-1.8,2.7-5.1,7.8-7.3,11.5S41,132,40.3,132c-0.6,0-1.5,0.5-1.9,1.2c-0.5,0.8-0.2,0.9,0.9,0.5
			c1.3-0.5,1,0.8-1.4,5.6c-1.7,3.4-3.5,6.4-4,6.5c-0.5,0.2-0.7,0.8-0.4,1.2c0.3,0.5-0.3,2.8-1.4,5.2c-7.5,16.2-17.6,58.5-14.3,59.6
			c1.4,0.4,1.6,4.2,0.3,4.2c-0.5,0-1.1-0.8-1.3-1.7c-0.9-3.7-2,25.1-1.4,33.9c0.7,8.5,2.5,24.6,3.6,31.3c0.1,0.6,0.6-0.1,1.1-1.5
			c0.6-1.9,0.7-1.6,0.3,1.5c-0.5,4.5,3.9,23.8,5.6,24.3c0.5,0.2,0.6,0.8,0.2,1.8c0.5,0.4,0.9,1,1.2,1.7c0.2,0.5,0.5,1.1,0.8,1.6
			c0.7-1.1,0.8-1,0.3,0.7c0,0,0,0,0,0c5.5,11.9,12.1,23.2,16.9,35.5c1,2.6,1.9,5.6,3,8.7c0.8,0.9,1.9,2.3,2.9,3.9
			c1.3,0.2,2.6,0.8,3.5,2.3c1,1.5,1.9,3,2.8,4.6c0.4-2-1.9-7.5-3.8-8.7c-0.8-0.6-0.8-0.8,0.1-0.8c1.8,0,7.6,8.4,6.1,8.9
			c-0.6,0.2-1.5,0.8-2,1.3c1.1,2.1,2.1,4.3,3,6.5c1.3,1.6,2.9,3.6,4.7,5.6c0.2,0.2,0.4,0.5,0.6,0.7c0.2,0.1,0.5,0.2,0.7,0.3
			c5.3,2.9,8.6,7.2,11.7,11.8c0.3-0.1,0.4,0,0.2,0.3c1.1,1.6,2.1,3.3,3.2,5c0.4,0.4,0.8,0.8,1.2,1.2c2.8,2.6,6,5.6,7,6.6
			s2.4,1.5,3,1.1c0.6-0.4,0.8-0.3,0.5,0.3c-0.4,0.6,0.4,1.8,1.8,2.7c0.7,0.5,1.3,1,1.8,1.6c0,0,0.1,0,0.1,0
			c7,1.6,13.3,4.7,15.8,11.7c3.6,2.5,7.5,5,8.9,5.7c1.1,0.6,2.2,1.2,3.2,1.7c6,1.9,11.5,5.1,17.2,7.5c7.6,3.3,15.3,6.6,23.1,9.5
			c15.1,5.7,30,8.1,46,9.4c1.9,0.2,3.3,1.2,4.1,2.5c4.8,0.4,13.9,0.6,21.5,0.5c13.9-0.1,15.5-0.3,15.8-1.8c0.3-1.7-1-1.8-15.7-1.8
			c-10.1,0-16.1,0.4-16.1,1c0,1.6-3.7,1.2-4.4-0.5c-0.5-1.3,2.1-1.5,19.4-1.5c19.3,0,23.7,0.7,19.9,3.1c-2.3,1.4,3.6,1.1,16.1-1.1
			c15.5-2.6,18-3.1,18-3.9c0-0.3,1-0.7,2.3-0.7c2.2-0.2,4-0.4,5.5-0.6c3.6-2.5,7.6-3.9,11.7-5c-0.1-0.3,0.3-0.4,0.9-0.3
			c1.3-0.4,2.6-0.7,3.9-1c0.9-0.8,1.7-1.2,2-0.9c0.6,0.6,14.7-5.4,16.2-6.9c0.7-0.7,0.4-0.8-0.8-0.4c-1,0.4-1.6,0.3-1.3-0.2
			c0.3-0.5,2-0.8,3.7-0.6c1.1,0.1,2.2-0.1,3.1-0.5c0.3-1.9,1.7-3.4,3.6-4.1c3.7-1.3,7-3.1,10.2-5.2c1.2-0.8,2.4-1,3.4-0.8
			c0.3-0.2,0.7-0.4,1-0.6c1.7-0.9,5.6-3.7,8.7-6c0.1-0.1,0.2-0.1,0.3-0.2c0.3-0.6,0.7-1.3,1.4-1.8c4-3.1,8-6.1,12.1-9.2
			c0.3-0.5,0.7-1.1,1.2-1.6c4.6-3.9,9-7.9,12.7-12.7c1-1.3,2.2-1.8,3.4-1.7c1.3-1.7,2.2-3.1,2-3.5c-0.3-0.6-0.1-0.7,0.5-0.3
			c0.6,0.3,1.9-0.5,3-1.9c0.4-0.5,0.9-0.9,1.2-1.2c1.8-2.5,3.5-5.2,4.9-8.1c0.8-1.6,2.3-2.4,3.9-2.4c1.2-1.7,2.5-3.6,3.9-5.5
			c1.2-1.6,2.3-3.2,3.3-4.7c-0.7-1.3-0.7-2.9,0.3-4.5c3.3-5.4,7.1-10.7,10.8-16c0-1.2,0.4-2,0.9-2c0.2,0,0.3,0.1,0.4,0.2
			c2.1-3.2,4.2-6.4,6.1-9.7c1.3-2.9,3-6.3,4.2-8.5c0.5-1.2,1-2.4,1.4-3.6c-0.1-0.1-0.1-0.2-0.2-0.4c-0.7-1.4-0.9-2.1-0.4-1.7
			c0.5,0.5,1.3-1,2.1-3c0.3-1.4,0.6-2.8,0.8-4.2c0.1-0.8,0.4-1.5,0.8-2.1c0.1-0.8,0.1-1.4-0.1-1.7c-0.4-1-0.2-1.4,0.4-1
			c1.3,0.8,5.7-13.4,5.7-18.5c0-2,0.4-3.4,0.8-3.2c0.5,0.3,0.8-0.3,0.8-1.4c0-1,0.3-2.2,0.7-2.6c0.4-0.4,0.8-2.3,0.9-4.4
			c0.1-2,0.7-8,1.3-13.2C457.2,251.1,457.1,213.4,455.9,209z M19.8,243.8l-0.3,8.7l-0.9-6.8c-0.5-3.8-0.5-11.4,0-17.5l0.9-10.7
			l0.3,8.8C19.9,231.1,19.9,238.9,19.8,243.8z M36,145c0.8-1.2,1-1.1,1,0.8c0,1.2-0.4,2.2-1,2.2C34.7,148,34.7,146.9,36,145z
			 M31.5,165c0.2-1.4,0.5-3.4,0.5-4.6c0-1.2,0.9-3.1,2-4.4s2-2.8,2-3.3c0-0.6,0.2-0.8,0.5-0.6c0.2,0.3-0.9,3.9-2.6,8
			C32.3,164.2,31.2,166.4,31.5,165z M31.7,290.3c-0.8-1.5-1.9-8.8-1.2-8.1c0.4,0.4,1.1,2.5,1.5,4.8
			C32.7,290.8,32.6,291.9,31.7,290.3z M31,186.5c0.5-1.2,0.8-1.4,0.8-0.5c0,0.8-0.4,2.6-0.8,4c-0.6,2-0.8,2.1-0.8,0.5
			C30.2,189.4,30.5,187.6,31,186.5z M28.5,174.2c0.3,0.3,0.3,1.7-0.1,3.2c-0.7,2.9-2.4,3.5-2.4,0.9C26,176.1,27.7,173.4,28.5,174.2z
			 M27,216.5c-0.8,4-0.8,4-0.9-1.5c0-3.5,0.3-5,0.8-4C27.4,211.8,27.4,214.3,27,216.5z M26,253.3c0.6,0.9,0.9,3.6,0.7,6
			c-0.3,3.9-0.4,3.9-0.5,0.7c-0.1-1.9-0.5-4.6-0.8-6C24.9,251.9,25,251.7,26,253.3z M24,190c0.6-2,0.8-2.1,0.8-0.5
			c0,1.1-0.4,3.4-0.8,5c-0.7,2.7-0.8,2.7-0.8,0.5C23.2,193.6,23.6,191.4,24,190z M21.7,268.8c-0.3,0.9-0.5-0.1-0.4-2.3
			c0-2.2,0.2-3,0.4-1.7C21.9,266,21.9,267.8,21.7,268.8z M21.1,211.5c-0.6,0.3-0.7-1-0.4-3.2c0.8-5,1.3-5.5,1.3-1
			C22,209.3,21.6,211.1,21.1,211.5z M26.2,292c-1,0-3.2-9.1-3.1-12.8c0.1-1.8,0.5-1,1.4,2.6c0.7,2.9,1.6,6.4,1.9,7.7
			C26.8,290.9,26.7,292,26.2,292z M28.5,299.8c-0.3,0.3-0.5,0.3-0.5,0.1c0-0.2-0.4-1.9-0.9-3.7c-0.5-1.7-0.6-3.2-0.2-3.2
			c0.5,0,1.1,1.4,1.5,3.2C28.7,297.9,28.8,299.5,28.5,299.8z M28.7,274.2c-0.2,0.7-0.7-0.6-1.2-3c-0.4-2.4-0.5-4.6-0.2-4.9
			s0.9,1.1,1.2,3C28.9,271.3,29,273.5,28.7,274.2z M28.9,200.6c-0.1,1.6-0.5,4-0.9,5.4c-0.6,1.7-0.7,0.9-0.3-2.5
			C28.3,197.9,29.1,196.1,28.9,200.6z M32.4,312c-0.6,0-2-3.8-2.9-8c-1.1-5,0-3.4,1.8,2.8C32.2,309.6,32.7,312,32.4,312z
			 M34.7,299.6c-0.2,0.3-0.8-0.7-1.1-2.2c-0.4-1.4-0.5-2.9-0.2-3.1c0.3-0.3,0.8,0.7,1.2,2.1C34.9,297.9,35,299.3,34.7,299.6z
			 M34.9,175.5c0,1.1-0.4,2.7-0.9,3.5c-0.9,1.3-1,1.3-0.9,0c0-0.8,0.4-2.4,0.9-3.5l0.9-2V175.5z M36.3,305.6c-0.6-2-0.7-3.6-0.2-3.6
			s1.1,1.1,1.5,2.5C38.6,308.5,37.5,309.5,36.3,305.6z M39,146.2c0-1.7,4.3-10.2,5.2-10.2c0.4,0-0.5,2.4-1.9,5.3
			C39.3,147.3,39,147.8,39,146.2z M41.9,318c0.5,0,1.3,0.9,1.6,2.1c0.9,2.6-0.2,3.8-1.1,1.3c-0.4-1-0.9-2.2-1.1-2.6
			C41.1,318.3,41.3,318,41.9,318z M40.7,316.7c-0.3,0.2-0.8-0.5-1.2-1.7s-0.5-2.4-0.2-2.7c0.3-0.2,0.8,0.5,1.2,1.7
			S41,316.4,40.7,316.7z M44.1,338c-0.9,0-3.4-6-2.8-6.6c0.2-0.2,1.1,1.2,2,3.1C44.2,336.4,44.6,338,44.1,338z M44.3,151.4
			c-0.3,1.4-1.2,3.1-2,3.7c-1.2,1.1-1.2,0.8-0.2-1.7C43.9,149.3,44.8,148.4,44.3,151.4z M423.8,128c0.5,0,1.4,1.1,2,2.5
			c1.3,2.7,1,3.2-0.5,1.3C423.4,129.4,422.9,128,423.8,128z M419.9,133c0.4,0,1.3,1.1,1.9,2.5c0.6,1.4,0.8,2.5,0.3,2.5
			c-0.4,0-1.3-1.1-1.9-2.5S419.4,133,419.9,133z M415,112c1.8,0,2.1,0.4,2,2.5c0,0.3,0.7,1.9,1.5,3.5c2.4,4.7,0.3,3.5-2.7-1.5
			C413.2,112.3,413.2,112,415,112z M410.4,352.9c-0.3-0.5,0.2-0.9,1-0.9s1.8-0.9,2.1-2s1.1-2,1.7-2s-0.1,1.5-1.4,3.3
			c-1.4,1.7-2.7,3.9-3,4.7c-0.4,1.2-0.6,1.2-1.3,0c-0.5-0.9-0.4-1.5,0.3-1.8C410.5,354,410.8,353.4,410.4,352.9z M411.1,121.1
			c0.9,0,2.2,0.6,2.9,1.4c0.9,1,0.9,1.5,0.1,1.5c-0.6,0-1.1-0.4-1.1-0.9s-0.8-1.2-1.7-1.4C409.8,121.3,409.8,121.2,411.1,121.1z
			 M411.4,118.8c0.4,0.7,0.1,1.2-0.8,1.2c-0.9,0-1.7-0.4-1.7-1c-0.1-0.5-0.2-1.4-0.3-1.9c0-0.5-1.1-2.1-2.3-3.4
			c-2.2-2.7-4.7-6.7-4-6.7C402.8,107,409.9,116.4,411.4,118.8z M398.5,92c0.9,0,1.4,0.4,1,0.9c-0.3,0.5,0.4,1.6,1.6,2.5
			c1.2,0.8,2,1.9,1.8,2.5c-0.2,0.6-1.7-0.5-3.2-2.4C397.5,92.8,397.3,92,398.5,92z M393.4,95.9c2,1.9,3.6,3.6,3.6,3.8
			s-0.6,0.3-1.4,0.3c-0.8,0-1.8-0.9-2.1-2s-1-2-1.5-2c-0.4,0-1.1-0.8-1.5-1.7C390.2,93.3,391.5,94,393.4,95.9z M393.8,254.3
			c0.5-10.1,0.9-11.1,1.1-2.5c0,4.5-0.2,8.2-0.6,8.2C393.8,260,393.6,257.4,393.8,254.3z M393.5,215.5l-0.5-4l1.1,3.3
			c0.5,1.9,0.8,5.7,0.6,8.5l-0.3,5.2l-0.2-4.5C394.1,221.5,393.8,217.7,393.5,215.5z M391.4,197.9c-0.8,0.8-1.3,0.2-2.1-2.4
			c-0.6-2-0.7-3.5-0.2-3.5s0.9,0.9,0.9,1.9c0,1.1,0.6,2.1,1.3,2.4C392.1,196.6,392.2,197.1,391.4,197.9z M391,276
			c-1.2,0-1.2-0.8,0-3.5c0.8-1.8,0.9-1.7,0.9,0.8C392,274.8,391.6,276,391,276z M389.7,239.7c-0.2,2.6-0.3,0.8-0.3-4.2
			c0-4.9,0.1-7.1,0.3-4.8S389.9,237.1,389.7,239.7z M383.1,387.1c0.9,1.8,0,2.6-1.4,1.2c-1.1-1.1-0.8-4.3,0.5-4.3
			c0.6,0,0.8,0.3,0.5,0.6C382.4,385,382.5,386.1,383.1,387.1z M383,300c-0.5,0-0.5-1.3,0.2-3.1c1.2-3.5,2.3-3.1,1.4,0.6
			C384.2,298.9,383.5,300,383,300z M383,278.5c0-1.4,0.4-2.5,0.9-2.5c0.4,0,0.6,1.1,0.3,2.5c-0.2,1.4-0.6,2.5-0.8,2.5
			C383.2,281,383,279.9,383,278.5z M384.1,199.2c0-1.1,0.4-0.9,1,0.7c0.5,1.3,0.8,2.9,0.6,3.5C385.3,204.7,384,201.4,384.1,199.2z
			 M384.2,180c-1.2-3.3-1.7-6-1.3-6c0.5,0,1.7,2.5,2.7,5.5C387.9,187,386.9,187.4,384.2,180z M384.4,87.2c0.5-0.4,4.6,3.5,4.6,4.5
			c0,0.7-0.7,0.2-2.9-1.8C384.9,88.7,384.1,87.5,384.4,87.2z M387.8,221c-0.4-1.9-0.9-6.2-1.2-9.5l-0.5-6l1.5,7
			c0.8,3.9,1.3,8.1,1.2,9.5C388.5,224.1,388.4,224,387.8,221z M388,262c0,1.1-0.4,2-1,2c-0.5,0-1-0.9-1-2s0.5-2,1-2
			C387.6,260,388,260.9,388,262z M388.7,249.8c0.2,1.2,0.2,3.2,0,4.5c-0.2,1.2-0.4,0.2-0.4-2.3S388.5,248.5,388.7,249.8z M376.8,72
			c0.5,0,1.8,0.9,3,2s2.6,2,3.2,2s0.8,0.5,0.5,1c-0.3,0.6-0.2,1,0.3,1c0.9,0,7.2,5.7,7.2,6.5c0,1.3-1.9,0.2-4.1-2.3
			c-1.3-1.5-4.3-4.4-6.7-6.5C377.9,73.7,376.4,72,376.8,72z M375.6,79c0.3,0,1.9,1.1,3.6,2.5c1.6,1.4,2.4,2.5,1.6,2.4
			C379.5,83.9,374.3,79,375.6,79z M369.2,246.4c-1.1-1.2-0.7-1.4,2.1-1.4c2,0,4.2-0.8,5.5-2c2.2-2,2.9-1.7,1.4,0.7
			c-0.4,0.7-2.3,1.9-4.2,2.7C371,247.6,370.3,247.6,369.2,246.4z M374,304.8c0,0.5-0.6,1.7-1.4,2.7c-1.3,1.8-1.4,1.8-0.9-0.8
			C372.2,304.3,374,302.8,374,304.8z M367.5,329c0.3,0.6-0.1,1-0.9,1c-0.8,0-1.8,0.9-2.1,2s-1.1,2-1.6,2c-1.1,0-0.6-0.9,3.6-6.8
			c3.4-4.7,4.9-5.5,3.2-1.7c-0.7,1.4-1.6,2.5-2,2.5C367.2,328,367.2,328.5,367.5,329z M331.8,121.1c-0.2,0.7-1.2,0-2.1-1.5
			c-1-1.4-2.1-2.5-2.5-2.5c-1.9,0.3-2.5-0.2-1.2-1.1c1.2-0.7,1-1.2-0.9-2.9c-1.3-1.2-2-2.1-1.5-2.1c1.6,0,6.4,4.7,6.4,6.3
			c0,1,0.6,1.3,1.9,1c1-0.3,2.2,0,2.5,0.6c0.4,0.6,0.1,1.1-0.8,1.1C332.8,120,332,120.5,331.8,121.1z M331.4,357.5
			c-2.5,1.9-3.5,1.9-2.8,0c0.4-0.8,1.6-1.5,2.7-1.5C333.3,356,333.3,356,331.4,357.5z M335.8,112c1,0,1.9,0.7,1.9,1.5
			c0,1.9-0.8,1.9-2.5,0C334.1,112.2,334.2,112,335.8,112z M334.4,353.5c0.8-0.8,2-1.5,2.7-1.5c0.7,0,0.4,0.6-0.7,1.5
			C333.9,355.4,332.4,355.4,334.4,353.5z M337,359.5c2.6-2.8,4.2-3.3,3.4-1c-0.4,0.8-1.2,1.5-2,1.5c-0.8,0-1.4,0.5-1.4,1
			c0,0.6-0.5,1-1.2,1C335.2,362,335.7,360.9,337,359.5z M338.8,123c0.4,0,2.3,1.6,4.2,3.5s3,3.5,2.4,3.4
			C344.2,129.8,337.7,123,338.8,123z M343,417.5c0.7-0.8,2.1-1.5,3.1-1.5c1.1,0,1.9-0.4,1.9-1c0-0.5,0.7-1,1.5-1s1.5-0.4,1.5-1
			c0-0.5,0.8-1,1.7-1c1,0-0.5,1.5-3.4,3.5C343.8,419.2,340.8,420.2,343,417.5z M350.1,347.3c1.4-1.6,3.8-4.1,5.2-5.8
			c1.4-1.6,2.9-2.6,3.2-2.3s-1.6,2.9-4.4,5.7C349,350.2,345.7,352.1,350.1,347.3z M353.6,336.3c-2.3,2.5-3.6,3.3-3.6,2.2
			c0-0.2,1.1-1.6,2.5-3s2.4-2.5,2.1-2.5c-0.3,0,0.5-1.1,1.7-2.4c3.6-3.8,5.7-6.9,5.7-8.3c0-0.8,0.9-2.4,2-3.6s3-3.3,4.1-4.7
			c2-2.5,2-2.5,0.9-0.1C367.3,317.2,356.5,333,353.6,336.3z M349.2,134.4c0.5-0.4,2,0.8,5.2,4.4c1.7,1.7,2.6,3.2,2,3.1
			C355.4,141.8,348.7,134.9,349.2,134.4z M365.8,74.6c0.4-0.2,0.9,0.4,0.9,1.5c0.1,1-0.2,1.9-0.8,1.9
			C364.8,78,364.7,75.3,365.8,74.6z M364.3,233c-0.7,1.4-1.3,1.8-1.3,1c0-1.7,1.7-4.7,2.3-4C365.5,230.3,365.1,231.6,364.3,233z
			 M364.4,70.5c-2.5-2.4-0.2-1.7,3.1,1c1.7,1.3,2.4,2.4,1.8,2.5c-0.7,0-1.3-0.4-1.3-1c0-0.5-0.5-1-1.1-1
			C366.3,72,365.2,71.3,364.4,70.5z M363.4,150.5c0.3,0.8,0.2,1.5-0.3,1.5c-1,0-2.1-1.1-2.1-2.2C361,148.4,362.8,148.9,363.4,150.5z
			 M361.3,139.8c-1.9-2.4-2.4-3.8-1.5-3.8c0.5,0,1.4,1.1,2,2.5C363.1,141.2,362.8,141.7,361.3,139.8z M377.1,180
			c-1.2-0.6-1.3-1.2-0.5-2c0.8-0.8,1.6,0,2.8,3.1c0.9,2.3,1.5,4.4,1.2,4.6c-0.3,0.3-0.8-0.6-1.2-2.1
			C379.1,182.2,378,180.6,377.1,180z M380.2,288.5c0.3-0.3,0.3,0.6,0.1,2c-0.6,2.8-0.9,3-1.8,1.5c-0.4-0.6-1.1-0.7-1.7-0.4
			c-0.8,0.5-0.9,0.1-0.5-1c0.4-1,0.7-2.2,0.7-2.8c0-0.7,0.5-0.7,1.3,0.1C379.1,288.5,379.9,288.7,380.2,288.5z M377.7,308.4
			c1.5-3,2.9-5.1,3.1-4.5c0.2,0.5-0.7,3-1.9,5.5c-1.1,2.5-2.5,4.6-3,4.6S376.2,311.5,377.7,308.4z M380.3,239.3
			c-0.5,0.3-0.8-0.8-0.8-2.3s0.3-2.6,0.8-2.3c0.4,0.2,0.7,1.3,0.7,2.3S380.7,239.1,380.3,239.3z M377.4,229.5c1,0.8,1.6,1.8,1.5,2.3
			c-0.2,0.5-1.3,0.1-2.3-0.9c-1.2-1.2-3.5-1.9-6-2c-3.8-0.1-3.9-0.2-1.1-0.8C373,227.3,374.8,227.6,377.4,229.5z M367.8,148.5
			c-2-3.4-2.4-4.5-1.3-4.5c1.3,0,1.6,0.5,1.5,2.5c-0.1,0.3,0.6,1.3,1.5,2.1c0.8,0.9,1.5,2.2,1.5,3
			C371,153.6,370.8,153.4,367.8,148.5z M368.4,64c0.9,0,1.6,0.7,1.6,1.5s-0.2,1.5-0.4,1.5c-0.2,0-0.9-0.7-1.6-1.5
			C367,64.3,367,64,368.4,64z M356.8,56.2c0.6-0.2,2.1,0.6,3.4,1.7c1.2,1.2,2.7,2.1,3.4,2.1c0.6,0,1.4,0.7,1.8,1.5
			c0.8,2.2-0.3,1.8-5.3-1.7C357.6,58,356.1,56.5,356.8,56.2z M359.8,65.5c2.4,1.6,3.1,2.5,1.9,2.5c-0.9,0-1.7-0.4-1.7-1
			c0-0.5-0.5-1-1.1-1c-0.6,0-1.7-0.7-2.5-1.5C354.1,62.2,355.7,62.7,359.8,65.5z M351,127.5c-1.9-1.9-3-3.5-2.6-3.5
			c0.8,0,6.6,5.8,6.6,6.6C355,131.4,354.3,130.9,351,127.5z M352.4,60.5c1.4,1.1,1.6,1.5,0.5,1.5c-0.8-0.1-2-0.7-2.7-1.5
			C348.6,58.6,349.9,58.6,352.4,60.5z M332.3,42.3c0.7-0.7,6.7,1.9,6.7,2.9c0,0.5,0.7,0.8,1.5,0.8s1.5,0.5,1.5,1c0,0.6,0.7,1,1.5,1
			c0.9,0,2.5,0.9,3.7,2s3.2,2,4.4,2c1.2,0,2.5,0.7,2.8,1.6c1,2.6,0.3,2.6-3.5-0.1c-4-2.6-8.7-5.3-14.9-8.5
			C333.7,43.8,332,42.6,332.3,42.3z M327.5,47.4c0.6-0.2,3.3,0.7,6,2.1c4.5,2.2,4.7,2.5,2.2,2.5c-1.6,0-2.6-0.4-2.2-1
			c0.3-0.5-0.3-1-1.4-1c-1.2,0-2.1-0.4-2.1-1c0-0.5-0.8-1-1.7-1.1C327.3,47.9,327,47.6,327.5,47.4z M314.3,34.1
			c1.5,0,2.7,0.4,2.7,0.9c0,0.6,1.1,1,2.5,1s2.5,0.4,2.5,0.9s0.8,1.2,1.8,1.4c1.2,0.3,1.2,0.5,0.2,0.5c-0.8,0.1-3.2-0.7-5.3-1.8
			c-2.1-1-4.6-2.1-5.5-2.3C312.2,34.4,312.6,34.2,314.3,34.1z M311.4,96c0.9,0,1.6,0.5,1.6,1c0,0.6,0.9,1,2,1s2,0.5,2,1
			c0,0.6,0.8,1,1.8,1s2.4,0.9,3.2,2s2.2,2,3.2,2s1.8,0.5,1.8,1c0,0.6,0.5,1,1,1c0.6,0,2.2,1.1,3.6,2.5c3,3,1.7,3.4-1.4,0.5
			c-1.2-1.1-2.4-2-2.7-2s-3.2-1.7-6.3-3.8c-3.1-2.1-8.8-5.3-12.5-7.2c-5-2.6-6.3-3.6-4.7-3.8c1.2-0.2,2.9,0.5,3.9,1.7
			C308.9,95.1,310.5,96,311.4,96z M316.8,373.7c0.9-0.7,1.1-0.6,0.6,0.7c-0.3,0.9-1.6,1.6-2.8,1.5c-1.4,0-1.6-0.2-0.6-0.6
			C314.8,375,316.1,374.3,316.8,373.7z M314.3,105.9c-1.3,0.1-2.3-0.3-2.3-0.8s-1.5-1.6-3.2-2.5c-1.8-0.8-2.7-1.6-2-1.6
			c0.8,0,2.6,0.8,4,1.9c1.5,1,3.4,2.1,4.2,2.4C316,105.7,315.7,105.9,314.3,105.9z M320.4,108.5c1.4,1.1,1.6,1.5,0.5,1.5
			c-0.8-0.1-2-0.7-2.7-1.5C316.6,106.6,317.9,106.6,320.4,108.5z M298.9,376c1.1,0,2.3-0.4,2.6-1c0.3-0.5,1.4-1,2.3-1
			c1.2,0,0.9,0.4-0.8,1.3c-4.2,2.2-6,2.7-6,1.7C297,376.4,297.9,376,298.9,376z M296.5,96.8c0.6-0.3,2.8,0.2,5,1.2
			c3.1,1.5,3.5,1.9,1.8,2c-1.3,0-2.3-0.4-2.3-0.9s-1.2-1.1-2.7-1.3C296.7,97.6,296,97.2,296.5,96.8z M310.5,62
			c0.8,1.3-1.5,1.3-3.5,0c-1.2-0.8-1.1-1,0.7-1C308.9,61,310.2,61.5,310.5,62z M303.3,30c1.5,0,2.7,0.4,2.7,0.9s1,1.2,2.3,1.4
			c1.8,0.4,1.9,0.4,0.2,0.5c-1.1,0-3.3-0.6-5-1.3l-3-1.4L303.3,30z M301,35.6c0,0.2-1.3,0.4-3,0.4c-1.6,0-3-0.4-3-0.8
			c0-0.5,1.4-0.7,3-0.4C299.7,35,301,35.4,301,35.6z M296,95.6c0,0.2-1.2,0.4-2.6,0.4c-1.4,0-2.3-0.4-2-0.9
			C292,94.3,296,94.7,296,95.6z M289.8,26.1c2.3-0.1,4.2,0.3,4.2,0.8s1,1.2,2.3,1.4c1.8,0.3,1.8,0.4,0.2,0.4c-1.1,0-4-0.5-6.5-1.3
			l-4.5-1.2L289.8,26.1z M271.5,29.3c1.7-0.2,5.9,0.3,9.5,1.1l6.5,1.4l-5.2,0.1c-2.9,0.1-5.3-0.3-5.3-0.9c0-0.5-1.9-1.1-4.2-1.2
			C269.6,29.7,269.3,29.6,271.5,29.3z M280,383c0-0.5,1.4-1,3.2-1c1.7,0,2.9,0.2,2.7,0.4C284.7,383.4,280,383.9,280,383z M285,391
			c0,0.6-0.4,1-1,1c-0.5,0-1-0.4-1-1c0-0.5-1-1-2.2-1s-1.9-0.3-1.5-0.6C280.2,388.5,285,389.9,285,391z M284.8,85.9
			c-0.2-0.1-1.6-0.5-3.3-0.9l-3-0.8l3.3-0.1c1.7,0,3.2,0.4,3.2,0.9C285,85.6,284.9,85.9,284.8,85.9z M278.8,89.6
			c6.6,1.9,7.2,2.3,4,2.3c-2,0.1-4.5,0.4-5.5,0.7c-1.5,0.5-1.5,0.4-0.3-0.5c2-1.4,1.1-2-3.3-2.3c-2-0.1-3.7-0.6-3.7-1
			c0-0.4-1.3-0.8-2.9-0.8c-1.7,0-3.3-0.5-3.6-1C262.6,85.6,269.1,86.7,278.8,89.6z M279,384.4c0,0.8-6.1,1.2-6.6,0.4
			c-0.3-0.4,1.1-0.8,3-0.8C277.4,384,279,384.2,279,384.4z M265.3,392.7c2-0.3,3.7-0.2,3.7,0.4c0,0.5-1.9,0.9-4.2,0.9
			C259.9,394,260.1,393.5,265.3,392.7z M272,444c2.8,0,5-0.4,5-1c0-0.5,2.1-1,4.8-0.9l4.7,0.1l-3.5,0.9c-5.9,1.5-16,2.6-16,1.7
			C267,444.4,269.3,444,272,444z M269.3,80.4c0.3-0.4,2.1,0.1,3.9,0.9c3.1,1.6,3.1,1.7,0.8,1.7C271.1,83,268.2,81.4,269.3,80.4z
			 M266.8,80.3c0.9,0.3-0.1,0.5-2.3,0.4c-2.2,0-3-0.2-1.7-0.4C264,80.1,265.8,80.1,266.8,80.3z M265.9,27.6c0.2,0.2-4.1,0.4-9.7,0.4
			c-6.3,0-10.2-0.4-10.2-1C246,26,264.8,26.7,265.9,27.6z M257.5,85.7c-2.7,0-3.8-0.2-2.2-0.4c1.5-0.2,3.7-0.2,5,0
			C261.5,85.5,260.3,85.7,257.5,85.7z M257.5,388.7c-2.7,0-3.8-0.2-2.2-0.4c1.5-0.2,3.7-0.2,5,0
			C261.5,388.5,260.3,388.7,257.5,388.7z M236.8,362.3c1.2-0.3,2.9,0.3,3.8,1.1c1.9,1.9,0.2,2.1-3.6,0.4
			C234.5,362.7,234.5,362.7,236.8,362.3z M234,93c0-0.5,0.9-1,2-1s2,0.5,2,1c0,0.6-0.9,1-2,1S234,93.6,234,93z M240.1,94.8
			c-1-0.2-1.2-0.6-0.5-1.1c1.9-1.1,5.6,2.9,5.9,6.6c0.2,1.8-0.1,4-0.6,4.8c-0.6,1-0.9,0.5-0.9-1.8C244,99.2,242.2,95.2,240.1,94.8z
			 M236.5,83.7c-3.8,0-5.5-0.2-3.8-0.4c1.8-0.2,5-0.2,7,0C241.8,83.5,240.4,83.7,236.5,83.7z M236.3,380c2.9,0,6.6-2.6,7.7-5.4
			c0.5-1.3,0.3-3.3-0.6-5.3c-1.4-3.6-1.1-4.1,1.2-1.9c2.6,2.6,1.7,7.5-2,11.2c-3.3,3.3-8.6,4.7-8.6,2.4C234,380.5,235,380,236.3,380
			z M245,85c0-0.5,1.1-1,2.5-1s2.5,0.5,2.5,1c0,0.6-1.1,1-2.5,1S245,85.6,245,85z M213.3,78.8c-0.2-0.5,9.4-0.7,21.4-0.6
			c12,0.1,19.3,0.3,16.3,0.5C237.7,79.4,213.8,79.4,213.3,78.8z M230.5,377.5c1.6,1.6,1.9,2.5,1,2.5c-2.2,0-4.5-4.1-4.5-8.1
			c0-3.6,2.6-7.9,4.8-7.9c0.6,0,0,1.1-1.3,2.5c-1.6,1.5-2.5,3.6-2.5,5.5S228.9,376,230.5,377.5z M228.8,105.5
			c1.4,3.1,0.7,3.2-1.3,0.2c-1.1-1.8-1.2-3.1-0.4-6c0.5-2,1.4-3.7,1.9-3.7c0.4,0,0.3,1.6-0.3,3.5C228,102,228,103.7,228.8,105.5z
			 M215.5,85.7c-2.7,0-3.8-0.2-2.2-0.4c1.5-0.2,3.7-0.2,5,0C219.5,85.5,218.3,85.7,215.5,85.7z M215,388.7c-3,0-4.3-0.2-2.7-0.4
			c1.5-0.2,3.9-0.2,5.5,0C219.3,388.5,218,388.7,215,388.7z M221,27c0-0.5,1.6-1,3.5-1s3.5,0.5,3.5,1c0,0.6-1.6,1-3.5,1
			S221,27.6,221,27z M236.8,20.2c14.9-0.1,23.2,0.2,23.2,0.8s-0.1,0.9-0.2,0.8c-0.2-0.1-10.6-0.5-23.3-0.8l-23-0.6L236.8,20.2z
			 M214.1,27.3c4,0.3,3.9,0.4-1.3,0.5c-3.2,0.1-5.8,0.7-5.8,1.2c0,0.6-0.4,1-1,1c-0.5,0-1-0.4-1-1C205,27.6,209,26.8,214.1,27.3z
			 M206.8,393.3c1.2-0.2,3-0.2,4,0c0.9,0.3-0.1,0.5-2.3,0.4C206.3,393.7,205.5,393.5,206.8,393.3z M205.8,80.3c1.2-0.2,3-0.2,4,0
			c0.9,0.3-0.1,0.5-2.3,0.4C205.3,80.7,204.5,80.5,205.8,80.3z M205.5,445c-0.3,0.6-0.9,0.9-1.3,0.8c-0.4,0-2.7-0.4-5.2-0.8
			l-4.5-0.7l5.8-0.1C204,444.1,205.9,444.4,205.5,445z M197.5,83.2c-1.9,0.2-3.5,0-3.5-0.4c0-0.4,1.6-0.8,3.5-0.8s3.5,0.2,3.5,0.4
			C201,82.6,199.4,83,197.5,83.2z M201,391.6c0,0.8-5.9,0.4-6.4-0.4c-0.2-0.4,1.1-0.6,3-0.4C199.5,391,201,391.4,201,391.6z M199,89
			c0,0.5-1.3,1-3,1c-1.6,0-3,0.5-3,1c0,0.6-1.5,1-3.2,1l-3.3-0.1l3.9-1.4C196.6,88.3,199,87.9,199,89z M189.3,382.1
			c2-0.1,3.7,0.3,3.7,0.8c0,0.6,1.5,1.2,3.3,1.4l3.2,0.4l-3.1,0.1c-1.7,0.1-3.3-0.1-3.7-0.4c-0.3-0.4-2.1-1-3.9-1.4l-3.3-0.8
			L189.3,382.1z M197,23c0.8-0.5,2.4-0.9,3.5-0.9h2l-2,0.9c-1.1,0.5-2.7,0.9-3.5,0.9C195.7,24,195.7,23.9,197,23z M197.5,29.6
			c2.2-0.2,2.5-0.1,0.8,0.1c-1.8,0.2-3.3,0.8-3.3,1.4c0,0.5-2.1,0.8-4.7,0.8l-4.8-0.1l4-0.9C191.7,30.4,195.3,29.8,197.5,29.6z
			 M183.5,26c1.9,0,3.5,0.2,3.5,0.4c0,0.2-1.6,0.6-3.5,0.8s-3.5,0-3.5-0.4C180,26.4,181.6,26,183.5,26z M158.3,34.3
			c0.9-0.2,1.7-0.9,1.7-1.4s1.4-0.9,3-0.9c1.7,0,3-0.4,3-1c0-0.5,1.5-1,3.3-1c2.6,0.1,2,0.5-3.8,2.5c-3.8,1.4-7.4,2.4-8,2.4
			C157,34.8,157.3,34.6,158.3,34.3z M157.6,97.5c0.4-0.8,1.7-1.5,3-1.5c1.3,0,2.4-0.4,2.4-1c0-0.5,1-1,2.2-1c1.7,0,1.1,0.6-2.4,2.5
			C157.3,99.4,156.9,99.5,157.6,97.5z M161.8,103.9c-1,0.1-1.8,0.6-1.8,1.1c0,0.6-0.8,1-1.7,1c-1.4,0-1.3-0.3,0.5-1.6
			c1.2-0.8,2.8-1.3,3.5-1.1C163,103.6,162.8,103.9,161.8,103.9z M158.9,40.4c1.9-0.8,3.9-1.2,4.5-1c0.6,0.2,0.3,0.5-0.6,0.5
			c-1,0.1-1.8,0.6-1.8,1.1c0,0.6-1.2,1-2.7,1C155.5,41.9,155.5,41.9,158.9,40.4z M159.8,368c1.1,0,2.2,0.7,2.6,1.5
			c0.8,2.3-1.4,1.7-6.9-1.8c-3.7-2.3-4.5-3.3-3.2-3.5c1-0.2,2.6,0.6,3.6,1.7C156.9,367.1,158.6,368,159.8,368z M143.6,114.5
			c2.5-1.9,4-1.9,2,0c-0.8,0.8-2,1.5-2.7,1.5C142.2,116,142.5,115.4,143.6,114.5z M142.7,366c-0.9,0-1.7-0.4-1.7-1
			c0-0.5-0.5-1-1.1-1c-0.6,0-1.7-0.7-2.5-1.5c-2.3-2.3-0.7-1.8,3.4,1C143.2,365.1,143.9,366,142.7,366z M144.8,426.3
			c1.2,0.3,1.2,0.5,0.2,0.5c-0.8,0.1-2.6-0.5-4-1.3c-2.5-1.4-2.5-1.4-0.2-1.5c1.2,0,2.2,0.4,2.2,0.9S143.8,426.1,144.8,426.3z
			 M136.3,352c0.8,0,1.7,0.7,2.1,1.5c0.3,0.8,0.2,1.5-0.3,1.5s-1.4-0.7-2.1-1.5C135,352.3,135,352,136.3,352z M134.5,123
			c-1.5,1-1.4,0.7,0.4-1.3c1.4-1.5,2.9-2.7,3.3-2.7c0.5,0,0.3,0.6-0.4,1.3C137.1,120.9,135.6,122.2,134.5,123z M136.4,43.5
			c0.8-0.8,2.5-1.5,3.8-1.5c2.2,0,2.1,0.1-0.6,1.5C136,45.4,134.4,45.4,136.4,43.5z M139.4,110c0.9,0,1.6-0.4,1.6-1
			c0-0.5,0.6-1,1.3-1c0.6,0.1-0.1,1.2-1.8,2.6c-4.4,3.6-8.5,6.6-8.5,6.1C132,115.4,138,110,139.4,110z M129.3,129.4
			c-0.3,1.5-1.1,2.5-1.8,2.4c-1.2-0.3-5.5,3.8-8.5,8.1c-0.8,1.2-1.8,2.1-2.3,2.1c-1.3,0,2.6-5,8.1-10.3
			C129.3,127.3,129.7,127,129.3,129.4z M127.4,343.5c0.8,2.2,0.5,2-4.4-3c-3-3-3.9-4.5-2.8-4.5c0.9,0,1.9,0.9,2.3,1.9
			c0.9,3,3.5,4.8,4.5,3.2c0.5-0.9,1-1,1.4-0.2c0.4,0.6,0.2,1.1-0.4,1.1C127.3,342,127,342.7,127.4,343.5z M117.8,343.7
			c-0.7-0.2-1-0.7-0.7-1.1c0.3-0.3,2.2,1.2,4.3,3.4c2.3,2.5,3.1,4,2.2,4c-0.8,0-1.8-0.9-2.1-2s-1.3-2-2.1-2c-0.8,0-1.3-0.4-1-0.9
			C118.8,344.6,118.4,344,117.8,343.7z M113.4,328.3c0.6-0.6,2.6,1.5,4.4,4.5c0.7,1.2,1,2.2,0.8,2.2
			C117.8,335,112.9,328.7,113.4,328.3z M124.5,124.2c0.3,0.2-1.1,2-3,3.8c-1.9,1.9-3.5,3.1-3.5,2.8C118,129.8,124,123.7,124.5,124.2
			z M113.4,57.5c0.8-0.8,1.9-1.5,2.5-1.5c0.6,0,1.1-0.4,1.1-1c0-0.5,0.6-1,1.4-1c0.8,0,1.6-0.5,1.8-1.1c0.2-0.6,1.2-1,2.2-0.8
			c1.6,0.3,1.4,0.6-1,1.9c-1.6,0.8-4.1,2.2-5.6,3.2C112.6,59.4,111.3,59.5,113.4,57.5z M122.8,59c1,0,1,0.4-0.2,1.5
			c-0.8,0.8-2,1.5-2.7,1.5c-0.6,0-2.5,1.4-4.1,3c-1.5,1.7-3.6,3-4.5,3C109.4,68,120.8,59.1,122.8,59z M111.2,149.3
			c-0.4-0.8,2.9-6.3,3.8-6.3c0.3,0,0.6,1.2,0.6,2.6c0.1,1.7-0.2,2.4-1.1,2c-0.8-0.3-1.6,0.5-1.9,2c-0.4,1.3-1.3,2.4-2.1,2.4
			c-0.7,0-1.7,0.9-2,2s-1.1,2-1.6,2c-1.4,0,0.8-3.7,2.9-4.9C110.7,150.6,111.3,149.8,111.2,149.3z M107.9,144
			c-1.6,1.9-2.8,2.9-2.7,2.1c0.3-1.4,4.8-6.4,5.3-5.9C110.7,140.4,109.5,142.1,107.9,144z M106.4,70.5c0.8-0.8,1.7-1.5,2-1.5
			c0.3,0,0.6,0.7,0.6,1.5c0,0.9-0.9,1.5-2.1,1.5C105.1,72,105,71.8,106.4,70.5z M102.6,65.5c1.9-1.9,4.2-3.5,4.9-3.5
			s1.5-0.6,1.8-1.2c0.2-0.7,0.7-1,1.1-0.7c0.3,0.3-1.9,2.5-4.9,4.7C98.7,69.9,97.8,70.1,102.6,65.5z M102.2,248.3
			c0.4-1.5,0.2-2-0.8-1.6c-0.7,0.2-2.1,0-3.1-0.6c-1.5-0.8-1-1,2.5-1.1c4.1,0,4.2,0.1,3.1,2.3C102.2,250.4,101.6,250.8,102.2,248.3z
			 M103.2,313c-0.4,0-1.9-2.5-3.4-5.5s-2.3-5.5-1.9-5.5c0.4,0,1.9,2.5,3.4,5.5S103.6,313,103.2,313z M96,176c-0.5,0-0.4-1.1,0.2-2.5
			c1.3-2.9,2.3-2.6,1.3,0.4C97.2,175.1,96.5,176,96,176z M96.8,300.6c-0.3,0.3-1.1-0.9-1.7-2.7c-1.4-4.2-0.7-4.9,0.9-0.9
			C96.7,298.7,97,300.3,96.8,300.6z M100.8,229c-2.6,0-3.8-0.4-3-0.8c1.2-0.8,7.2-0.4,7.2,0.4C105,228.8,103.1,229,100.8,229z
			 M102.6,161.5c0.9-1.4,1.8-2.5,2-2.5c0.2,0-0.2,1.1-0.8,2.5c-0.6,1.4-1.5,2.5-2,2.5S101.7,162.9,102.6,161.5z M98,158.7
			c0,1.5-2.9,4.9-3,3.5c0-0.7,0.7-2,1.5-2.8C97.3,158.5,98,158.3,98,158.7z M94.4,80.5c0.8-0.8,1.7-1.5,2-1.5c0.3,0,0.3,0.7,0,1.5
			C96,81.3,95.1,82,94.3,82C93.1,82,93.1,81.8,94.4,80.5z M93,167c1.1-1.9,1.9-3,1.9-2.5c0,0.6-0.8,2.6-1.9,4.5s-1.9,3.1-1.9,2.5
			C91.1,171,91.9,168.9,93,167z M93.8,241.1c-0.5,1.6-1.8-0.2-1.8-2.5c0.1-1.9,0.1-2,1.1-0.3C93.7,239.3,94,240.5,93.8,241.1z
			 M90.8,76.2c0.4,0.2-0.9,1.8-3,3.7C85.7,81.7,84,83,84,82.8C84,81.8,90.2,75.9,90.8,76.2z M89.7,86.5c-2.3,2.2-3.3,1.8-1.2-0.5
			c1-1.1,2-1.8,2.3-1.6C91,84.7,90.5,85.6,89.7,86.5z M89.5,195.5c-1.4,5.3-2.5,8-2.5,6c0-1.7,3.3-12.6,3.7-12.2
			C90.9,189.5,90.4,192.3,89.5,195.5z M87.6,180.1c0.3-0.3,0.3,0.5-0.1,1.9c-2.1,6.6-4.4,12.3-4.4,11
			C83,191.3,86.6,181.1,87.6,180.1z M86.2,331.2c-0.9,0.9-1.2,0.7-1.2-1.2s0.3-2.1,1.2-1.2C87.1,329.7,87.1,330.3,86.2,331.2z
			 M85,218.3c0,3.2-0.4,5.7-0.8,5.7c-0.8,0-0.4-10,0.4-10.9C84.8,212.9,85,215.2,85,218.3z M83.1,237.6c0.2-10.8,0.2-10.6,1,5.4
			c0.5,9.1,0.7,16.9,0.6,17.5C84,262.7,83,248.1,83.1,237.6z M84,281.5c1,3.2,1.8,6,1.6,6.2c-0.6,0.6-2.5-4.6-3-8.4
			C82.1,276.4,82.5,276.8,84,281.5z M72,340.4c0,1-2.8,1.3-4.1,0.5c-1-0.6-0.7-0.9,1.4-0.9C70.8,340,72,340.2,72,340.4z M65.4,102.6
			c1.4-1.6,2.8-3.7,3.1-4.7c0.4-1.1,1.3-1.9,2.1-1.9c1,0-0.1,2.1-3.2,6.1c-2.6,3.3-5.2,6.3-5.7,6.6
			C60.3,109.5,62.6,105.8,65.4,102.6z M50,127c-0.6,1.1-1.5,2-2,2c-1.4,0-0.1-2.8,1.6-3.4C50.8,125.2,50.8,125.4,50,127z M53.2,354
			c-0.5,0-1.4-1.2-2-2.6c-1.4-2.9,0.2-2.4,1.8,0.7C53.6,353.1,53.7,354,53.2,354z M55.8,129.4c-0.6,1.4-1.5,2.6-2,2.6
			c-1,0,0.7-3.6,2.2-4.5C56.6,127.1,56.5,128,55.8,129.4z M58,114.5c-1.1,0.7-1.3-0.6-0.4-2.9c0.3-0.9,1.4-1.6,2.3-1.5
			c1,0,1.1,0.2,0.4,0.6c-0.7,0.2-1.3,1.1-1.3,1.8C59,113.3,58.6,114.2,58,114.5z M60.7,355c-0.2,0-0.9-1.1-1.5-2.5
			c-1-2.1-0.9-2.5,0.3-2.5c0.9,0,1.5,1,1.5,2.5C61,353.9,60.8,355,60.7,355z M62,120.4c0,0.9-0.8,1.6-1.7,1.6
			c-1.4,0-1.3-0.3,0.5-2.3c1.2-1.3,2.2-2.9,2.2-3.5c0-0.7,0.5-1.2,1-1.2c0.7,0,0.7,0.6,0.1,1.9c-0.6,1-0.7,2.2-0.3,2.6
			c0.4,0.5,0.1,0.5-0.5,0.1C62.5,119.2,62,119.5,62,120.4z M65.7,372c-0.8,0-1.7-1-2-2.2c-0.8-3-0.5-3,1.6-0.2
			C66.7,371.5,66.8,372,65.7,372z M71.3,378c-0.8-0.1-2.4-1.6-3.7-3.7c-1.4-2.4,0.9-1.3,2.7,1.2C71.3,376.9,71.7,378,71.3,378z
			 M72,370.2c0-0.4-1-1.8-2.2-3.2c-3.6-4-7.8-10.3-7.2-10.9c0.3-0.3,0.9,0.1,1.4,0.9c2.1,3.4,3.6,5.4,5.8,7.6c1.3,1.3,2,2.4,1.7,2.4
			c-0.4,0,0,0.7,0.9,1.5c0.8,0.8,2,1.5,2.6,1.5c0.7,0,1,0.6,0.7,1.4c-0.3,0.7,0,1.9,0.6,2.5c0.6,0.6,0.8,1.1,0.5,1.1
			c-1.1,0-2.8-2.7-2.1-3.3c0.3-0.4-0.1-0.7-1-0.7C72.8,371,72,370.7,72,370.2z M78.4,385.9c-1.2,0-5.7-4.9-4.6-4.9
			c0.5,0,1.9,1.1,3.2,2.5S78.9,386,78.4,385.9z M77.4,237c0-8.5,0.2-12,0.3-7.7c0.2,4.2,0.2,11.2,0,15.5
			C77.6,249,77.4,245.5,77.4,237z M76.6,100c-0.9,0,2.7-4.9,3.7-5c1.1,0,0.9,0.5-1.2,2.8C78.1,99,77,100,76.6,100z M79.6,204.6
			c0.4-2.5,1.1-4.6,1.6-4.6c0.6,0,0.7,1.1,0.3,2.8c-0.5,1.5-1.1,4.5-1.5,6.7C79.1,214.6,78.8,210.8,79.6,204.6z M79.7,261.3
			c0.2,0.9,0.2,2.5,0,3.5c-0.3,0.9-0.5,0.1-0.5-1.8S79.4,260.3,79.7,261.3z M79.3,378c0.4,0,2.3,1.6,4.3,3.5
			c1.9,1.9,3.1,3.5,2.6,3.5c-0.4,0-2.3-1.6-4.2-3.5S78.9,378,79.3,378z M90.5,397.9c-1.2-0.1-9.8-8.9-8.7-8.9c0.4,0,2.8,2,5.2,4.5
			S91,398,90.5,397.9z M90.6,285l-0.7-3.5l1.6,2.8c0.9,1.6,1.5,3.6,1.3,4.5C92.3,291,91.4,289.4,90.6,285z M94.7,402
			c-0.8,0-1.7-0.7-2.1-1.5c-0.3-0.8-0.2-1.5,0.3-1.5s1.4,0.7,2.1,1.5C96,401.7,96,402,94.7,402z M95.3,312.5c-1.2-1.5-3.4-8-2.4-6.9
			c0.5,0.5,2.6,3.9,4.6,7.7c3.7,6.7,4.1,9.5,0.5,3.5C97,315,95.8,313.1,95.3,312.5z M105.8,411c-0.2,0.6-1,0.1-1.8-1
			c-0.8-1.1-2-2-2.6-2c-0.7,0-1.4-0.7-1.8-1.5c-0.8-2.2,0.5-1.8,3.7,1.1C104.9,408.9,106,410.5,105.8,411z M103.6,401.5
			c-1.9-1.5-1.9-1.5,0.1-1.5c1.1,0,2.3,0.7,2.7,1.5C107.1,403.4,106.1,403.4,103.6,401.5z M105.6,329.8c-2.7-3.8-1.8-5.4,0.9-1.8
			c1.4,1.9,2.5,3.5,2.5,3.7C109,332.8,106.9,331.6,105.6,329.8z M118.9,420c-0.8-0.1-2-0.7-2.7-1.5c-1.6-1.9-0.3-1.9,2.2,0
			C119.8,419.6,120,420,118.9,420z M132,428c-1.4,0-3.2-0.9-4-2c-0.8-1.1-2.6-2-4.1-2c-1.6,0-2.6-0.5-2.6-1.5c0-2,0.3-1.9,7.2,2
			C133.4,427.3,134,428,132,428z M133.8,422c-0.6-0.1-17.8-10.9-19-11.9c-0.7-0.7-2.8-2.3-4.7-3.6c-2.3-1.7-2.9-2.5-1.8-2.5
			c0.9,0,1.7,0.5,1.7,1c0,0.6,0.7,1,1.5,1s1.5,0.5,1.5,1c0,0.6,0.7,1,1.5,1s1.5,0.5,1.5,1c0,0.6,0.7,1,1.5,1s1.5,0.5,1.5,1
			c0,0.6,0.7,1,1.5,1s1.5,0.5,1.5,1c0,0.6,0.9,1,2,1s2,0.5,2,1c0,0.6,0.9,1,1.9,1c1.1,0,2.3,0.9,2.6,2c0.3,1.1,1.3,2,2.1,2
			c0.8,0,1.4,0.5,1.4,1C134,421.6,133.9,422,133.8,422z M132.2,358.5c-1.6-1.9-0.3-1.9,2.2,0c1.4,1.1,1.6,1.5,0.5,1.5
			C134.1,359.9,132.9,359.3,132.2,358.5z M148.3,436c-1.3,0-2.3-0.4-2.3-1c0-0.5-0.9-1-2-1s-2-0.4-2-1c0-0.5-0.9-1-2-1s-2-0.4-2-1
			c0-0.5-0.8-1-1.7-1.1c-1,0-1.3-0.2-0.8-0.5c0.6-0.2,4.2,1.2,8,3.1C148.1,434.7,149.7,435.9,148.3,436z M145.6,360.9
			c-2.4-1.8-3.3-2.9-2.2-2.9c0.9,0,1.6,0.5,1.6,1c0,0.6,0.5,1,1.1,1c0.6,0,1.7,0.7,2.6,1.5C151.4,364.2,149.7,363.8,145.6,360.9z
			 M151.3,102.3c0.9-0.2,1.7-0.9,1.7-1.4s0.8-0.9,1.7-0.9c1.5,0,1.4,0.2-0.3,1.5c-1,0.8-2.6,1.4-3.4,1.4
			C149.9,102.8,150,102.6,151.3,102.3z M151.4,371c0.8,0,1.8,0.5,2.1,1c0.4,0.6,2.7,2.1,5.3,3.5c3.6,1.8,4.2,2.4,2.5,2.5
			c-1.3,0-2.3-0.4-2.3-1c0-0.5-1.2-1-2.6-1c-1.4,0-2.3-0.4-1.9-1c0.3-0.5,0.1-1-0.5-1s-1.8-0.7-2.6-1.5C150,371.2,150,371,151.4,371
			z M163.3,441.9c-1.8,0.1-3.3-0.3-3.3-0.9c0-0.5-1.5-1-3.4-1c-2.1,0-3.6-0.6-4-1.5c-0.7-2-0.3-1.9,7.4,1
			C165.7,441.6,166.1,441.9,163.3,441.9z M164.8,435.9c-0.2,0-3.4-1.3-7.3-2.9c-5.2-2.1-6.3-2.9-4.3-2.9c1.5-0.1,3,0.4,3.3,0.9
			c0.3,0.6,1.5,1,2.6,1c1,0,1.9,0.5,1.9,1c0,0.6,0.9,1,2,1s2,0.5,2,1C165,435.6,164.9,436,164.8,435.9z M165.3,379.9
			c-1,0-1.3-0.3-0.7-0.5c0.6-0.3,2.4,0.2,4,1.1c2.6,1.3,2.7,1.5,0.7,1.5c-1.3,0-2.3-0.4-2.3-1C167,380.5,166.2,380,165.3,379.9z
			 M168.8,436.1c1.7-0.1,3.2,0.4,3.2,0.9c0,0.6,1.4,1,3,1c1.7,0,3,0.5,3,1c0,1.3-0.4,1.2-7-1C166.1,436.3,165.8,436.1,168.8,436.1z
			 M174.3,445.8c-2.9,0-5.1-0.4-4.8-0.8c0.3-0.5-0.3-1.1-1.2-1.4c-2.9-0.9,3.9,0.2,7.7,1.2C179.4,445.7,179.4,445.7,174.3,445.8z
			 M178.5,378.8c-1.1,0-3.1-0.6-4.5-1.4c-2.5-1.3-2.5-1.4-0.2-1.4c1.2,0,2.2,0.4,2.2,0.9s1,1.2,2.3,1.4
			C180.1,378.7,180.2,378.7,178.5,378.8z M178.6,96c-3.1,0-3.4-0.6-0.6-1.3c1.1-0.3,2.3-0.1,2.6,0.4C180.9,95.6,180,96,178.6,96z
			 M179,35c0,0.6-1.7,1-3.7,0.9h-3.8l4.9-1.5c2.6-0.9,5.1-1.3,5.4-1c0.3,0.3-0.2,0.6-1.1,0.6C179.8,34,179,34.5,179,35z M181,93.6
			c0-0.2,1.1-0.6,2.5-0.8c1.4-0.3,2.5-0.1,2.5,0.3c0,0.5-1.1,0.9-2.5,0.9S181,93.8,181,93.6z M184,447.8c-1.9,0-2.7-0.2-1.7-0.5
			c0.9-0.2,2.5-0.2,3.5,0C186.7,447.6,185.9,447.8,184,447.8z M185.5,442.3l4.3-0.2c2.3,0,4.2,0.4,4.2,0.9c0,0.6-0.3,0.9-0.7,0.9
			c-0.5-0.1-2.4-0.5-4.3-0.9L185.5,442.3z M192.5,449.7c-2.2,0-3-0.2-1.7-0.4c1.2-0.2,3-0.2,4,0
			C195.7,449.6,194.7,449.8,192.5,449.7z M203.8,451.9c-3.2,0.1-5.8-0.3-5.8-0.8c0-0.8,7.9-0.5,10.5,0.4
			C209.1,451.7,206.9,451.9,203.8,451.9z M213.5,446.7c-3.8,0-5.5-0.2-3.8-0.4c1.8-0.2,5-0.2,7,0
			C218.8,446.5,217.4,446.7,213.5,446.7z M224.3,395.9c-5.7,0-10.3-0.2-10.3-0.7c0-0.7,13.9-0.5,18.5,0.2
			C233.6,395.6,229.9,395.8,224.3,395.9z M235,390.7c-4.1,0-5.8-0.2-3.7-0.4c2-0.2,5.4-0.2,7.5,0C240.8,390.5,239.1,390.7,235,390.7
			z M238.5,395.5c2.3-0.8,21.5-1.1,21.5-0.3c0,0.4-5.1,0.8-11.2,0.7C242.6,395.9,238,395.7,238.5,395.5z M247,447c0-0.6,3.7-1,9.2-1
			c5,0,8.9,0.2,8.7,0.4C263.8,447.3,247,447.9,247,447z M269.3,452c-6.8,0-6.7-0.5,0.5-1.3c3-0.4,5.2-0.2,5.2,0.3
			C275,451.6,272.5,452,269.3,452z M280.8,450c-4.9,0-4.7-0.5,0.5-1.3c2-0.3,3.7-0.2,3.7,0.4C285,449.6,283.1,450,280.8,450z
			 M289,448c-1.6,0-3-0.2-3-0.4c0-0.2,1.4-0.6,3-0.8c1.7-0.3,3-0.1,3,0.4C292,447.6,290.7,448,289,448z M287,441c0-0.6,1.6-1,3.5-1
			s3.5-0.4,3.5-1c0-0.5,1.4-1,3.1-1c1.7,0,2.8-0.4,2.4-1c-0.3-0.5-0.1-1,0.5-1c2.4,0,0.3,2.4-3.1,3.5C291.4,441.4,287,442,287,441z
			 M303.5,444c-1.4,0-2.5,0.5-2.5,1c0,0.6-1.7,0.9-3.7,0.9c-2.1-0.1-2.9-0.3-1.8-0.6c1.1-0.2,3.7-1.1,5.8-1.9
			c4.5-1.7,4.7-1.7,4.7-0.4C306,443.6,304.9,444,303.5,444z M306.7,372.3c1.2-0.2,2.5-1.3,2.8-2.4c0.4-1.2,1.5-1.9,3.1-1.9
			c3.2,0,3,0.4-1.2,2.9c-1.9,1.2-4.3,2-5.2,2C305.1,372.8,305.3,372.6,306.7,372.3z M322.6,436.5c-0.8,0.8-2.4,1.5-3.5,1.5
			c-1.2,0-2.1,0.5-2.1,1c0,0.6-1.1,1-2.5,1s-2.5,0.5-2.5,1c0,0.6-1.2,1-2.7,0.9c-1.6,0-2.1-0.3-1.3-0.6c0.8-0.2,2.9-1.1,4.5-1.8
			c5.2-2.3,10.7-4.5,11.2-4.5C323.9,435,323.5,435.7,322.6,436.5z M326,369c0,0.6-0.7,1-1.7,1c-1.9,0-2.1,0.2,4.2-4
			c4.3-2.8,4.6-2.9,2.3-0.6c-1.5,1.4-3.2,2.6-3.8,2.6C326.5,368,326,368.5,326,369z M328.4,425.5c0.8-0.8,2.2-1.5,3-1.5
			c0.9,0,1.6-0.4,1.6-1c0-0.5,1.2-1,2.6-1c1.4,0,2.3-0.4,1.9-1c-0.3-0.6,0.4-1,1.6-1c2.8,0,2.6,0.1-4.3,3.9
			C328.7,427.3,325.9,428,328.4,425.5z M348.4,424c-1.3,0-2.4,0.5-2.4,1c0,0.6-0.7,1-1.5,1s-1.5,0.5-1.5,1c0,0.6-1.2,1-2.6,1
			c-1.4,0-2.3,0.4-1.9,1c0.3,0.6-0.3,1-1.4,1c-1.2,0-2.1,0.5-2.1,1c0,0.6-1,1-2.2,1s-1.9-0.2-1.7-0.4c1.7-1.5,19.8-10.4,20.2-9.9
			C352.4,422.8,350.9,424,348.4,424z M356.6,418.5c-0.8,0.8-2.3,1.5-3.2,1.5c-1.6,0-1.6-0.1,0.2-1.5
			C356.2,416.5,358.7,416.5,356.6,418.5z M358.4,409.5c-2.5,1.9-4,1.9-2,0c0.8-0.8,2-1.5,2.7-1.5C359.8,408,359.5,408.6,358.4,409.5
			z M361.6,405.5c0.4-0.8,1.3-1.5,2.1-1.5c1.3,0,1.3,0.3,0.3,1.5c-0.7,0.8-1.6,1.5-2.1,1.5S361.3,406.3,361.6,405.5z M371.2,407.9
			c-1.7,0.1-4.3,2.7-3.5,3.5c0.4,0.3-0.3,0.6-1.5,0.6s-2.2,0.5-2.2,1c0,0.6-0.7,1-1.6,1c-0.8,0,0.5-1.6,3.1-3.6
			c2.6-1.9,5.2-3.3,5.8-3C372.1,407.7,372.1,407.9,371.2,407.9z M372.8,319.5c-0.6,1.4-1.5,2.5-2,2.5s-0.1-1.1,0.8-2.5
			c0.9-1.4,1.8-2.5,2-2.5C373.8,317,373.4,318.1,372.8,319.5z M377,394.5c-1.3,1.4-2.7,2.5-3.2,2.5c-0.4,0,0.2-1.1,1.4-2.5
			s2.6-2.5,3.2-2.5C378.9,392,378.3,393.1,377,394.5z M383.4,397.9c-1.1,0.2-2.1,0.6-2.4,1c-0.3,0.3-1.4,1.2-2.5,2
			c-1.1,0.8,0.2-0.7,2.8-3.2c2.6-2.6,5-4.7,5.2-4.7C387.9,393,385,397.6,383.4,397.9z M386.1,292c-0.6,0-0.6-1.2-0.1-3.1
			c1.1-3.8,2.6-5.5,1.7-1.9c-0.4,1.4-0.7,3.1-0.7,3.8C387,291.4,386.6,292,386.1,292z M390.4,390.5c-0.4,0.8-1.3,1.5-2.1,1.5
			c-1.2,0-1.2-0.2,0.1-1.5c0.8-0.8,1.7-1.5,2-1.5C390.7,389,390.7,389.7,390.4,390.5z M397.1,373.8c-1,1.8-9.1,9.9-9.1,9.1
			c0-0.3,1.8-2.4,4-4.9c2.1-2.4,3.7-4.7,3.4-5.2c-0.3-0.4,0.2-0.8,1.1-0.8C397.7,372,397.8,372.4,397.1,373.8z M400.4,379.7
			c-3.9,3.9-3.7,2.6,0.3-2.2c2-2.5,3.9-4.5,4-4.5C405.5,373,402.6,377.5,400.4,379.7z M412.4,364.5c-0.4,0.8-1.1,1.5-1.7,1.5
			s-0.8,0.3-0.4,0.6c0.3,0.3-0.5,1.7-1.8,3c-3.9,3.9-3.9,2.7,0.1-2.1C412.5,362.7,413.3,362.1,412.4,364.5z M415.6,360.6
			c-0.8,0.8-1.7,1.4-2.1,1.4c-0.8,0,1.3-3.7,2.5-4.5C417.5,356.6,417.2,359,415.6,360.6z M416.4,127c0.2,0,1.1,1.1,2,2.5
			c0.9,1.4,1.3,2.5,0.8,2.5s-1.4-1.1-2-2.5S416.2,127,416.4,127z M419.8,353.4c-0.6,1.4-1.5,2.6-2,2.6c-1,0,0.7-3.6,2.2-4.5
			C420.6,351.1,420.5,352,419.8,353.4z M419.4,342.5c-0.9,1.4-1.8,2.5-2,2.5s0.2-1.1,0.8-2.5s1.5-2.5,2-2.5S420.3,341.1,419.4,342.5
			z M421.4,336.4c0.3-0.9,0.6-2.2,0.6-3c0-0.8,0.7-1.4,1.5-1.4c1.4,0,1.4,0.3,0,3C421.9,338.1,420.3,339.2,421.4,336.4z
			 M425.6,344.6c-0.8,0.8-1.7,1.4-2.1,1.4c-0.8,0,1.3-3.7,2.5-4.5C427.5,340.6,427.2,343,425.6,344.6z M427.4,327l-1.5,2.5l0.7-2.5
			c0.7-2.8,1.2-3.5,1.8-2.9C428.6,324.3,428.2,325.6,427.4,327z M441,164c0.4,0,1,1.4,1.4,3.2c0.9,4.3,0.2,4.5-1.1,0.3
			C440.7,165.6,440.5,164,441,164z M437.4,156.3c0.3-0.3,1,0.7,1.6,2.2c0.6,1.5,1.3,3.2,1.6,3.6c0.3,0.5,0.3,0.9,0,0.9
			C439.7,163,436.8,156.9,437.4,156.3z M435.2,325.3c-0.3,1.2-1.2,2.9-2.1,3.7c-1.3,1.3-1.4,1.3-0.7-0.5c0.5-1.1,1.1-2.8,1.3-3.7
			C434.5,322.1,435.9,322.6,435.2,325.3z M437.4,301c-0.3,1.9-1,4.2-1.6,5c-0.6,1-0.7,0.3-0.2-2c0.3-1.9,1-4.2,1.6-5
			C437.8,298,437.9,298.7,437.4,301z M437.7,175.7c-0.3,0.2-0.8-0.5-1.2-1.7c-0.4-1.2-0.5-2.4-0.2-2.7c0.3-0.2,0.8,0.5,1.2,1.7
			C437.9,174.2,438,175.4,437.7,175.7z M439.5,314c-1.8,3.1-1.8,1.6,0-3c0.9-2.3,1.4-2.8,1.4-1.5C440.9,310.6,440.3,312.6,439.5,314
			z M440.2,183.8c0.3-0.7,1.3,2.2,2.2,6.5c1,4.2,1.6,8.7,1.4,9.9c-0.3,2.1-0.4,2.1-1.6-0.6c-0.7-1.5-1-3.2-0.6-3.7
			c0.3-0.6,0-3.2-0.6-5.9C440.3,187.3,440,184.5,440.2,183.8z M442.9,281.5c-0.1,1.1-0.5,3.1-0.9,4.5c-0.8,2.4-0.8,2.4-0.9-0.5
			c0-1.6,0.4-3.7,0.9-4.5C442.8,279.8,443,279.9,442.9,281.5z M444.9,297.5c0,1.1-0.4,2.7-0.9,3.5c-0.9,1.3-1,1.3-0.9,0
			c0-0.8,0.4-2.4,0.9-3.5l0.9-2V297.5z M444.6,179c-0.2,0-0.6-1.1-0.8-2.5c-0.3-1.4-0.1-2.5,0.3-2.5c0.5,0,0.9,1.1,0.9,2.5
			S444.8,179,444.6,179z M445.7,265.8c-0.3,0.9-0.5-0.1-0.4-2.3c0-2.2,0.2-3,0.4-1.7C445.9,263,445.9,264.8,445.7,265.8z M446.1,184
			c-0.1-2.3,1.5-4.5,2.3-3.1c0.4,0.6,0.3,1.1-0.3,1.1c-0.5,0-1.2,0.8-1.4,1.8C446.4,185,446.2,185.1,446.1,184z M446.7,255.8
			c-0.3,0.9-0.5-0.1-0.4-2.3c0-2.2,0.2-3,0.4-1.7C446.9,253,446.9,254.8,446.7,255.8z M446.7,220.8c-0.3,0.9-0.5,0.1-0.5-1.8
			s0.2-2.7,0.5-1.7C446.9,218.2,446.9,219.8,446.7,220.8z M447.7,240.3c-0.2,2.3-0.4,0.4-0.4-4.3s0.2-6.6,0.4-4.2
			C447.9,234.1,447.9,237.9,447.7,240.3z M448.7,282.8c-0.3,0.9-0.5,0.1-0.5-1.8s0.2-2.7,0.5-1.7
			C448.9,280.2,448.9,281.8,448.7,282.8z M450.1,276c-0.8,0-0.3-7.9,0.5-8.9c0.2-0.2,0.4,1.7,0.4,4.2C451,273.9,450.6,276,450.1,276
			z M451.8,220.5c-0.3-6-1.4-14.8-2.2-19.5c-1.8-9.9-2-12.3-0.7-10c0.5,0.8,1.6,7.1,2.6,14c0.9,6.9,1.5,15.7,1.3,19.5
			C452.5,231,452.5,230.7,451.8,220.5z M452.7,255.7c-0.2,2.6-0.3,0.8-0.3-4.2c0-4.9,0.1-7.1,0.3-4.8S452.9,253.1,452.7,255.7z"/>
	</g>
	<g id="layer103">
		<path class="st4" d="M216.5,452.4c-66.1-6.9-123.6-41.2-159.8-95.2C8,284.4,7.9,190.2,56.5,117c29.1-43.7,75-76.4,125.5-89.2
			c21.6-5.4,28.5-6.2,54.5-6.2c20.6,0,25.7,0.3,36,2.2c17.1,3.2,28.2,6.4,43.7,12.5C384,63.2,434.5,124,448.4,195.5
			c3.7,19.3,4.9,47.6,2.6,66.3c-4.9,40.8-20.5,78.2-46,110.2c-8.4,10.6-28,29.7-38.1,37.2c-29,21.7-60.9,35.4-96.3,41.4
			C261.8,452.1,225.3,453.3,216.5,452.4z M265.1,446.5c32.3-4.9,62.5-16.3,87.9-33.3c13-8.7,30.4-23.6,39-33.3
			c3.5-4.1,6.7-7.6,7-7.9c0.4-0.3,3.3-4.1,6.6-8.5c21.5-28.7,35.1-61.8,40.5-99c1.7-11.5,1.7-43.3,0-55
			C435.7,137.6,392.5,78,328.4,46.9C307,36.5,289.6,31.2,265,27.4c-12.9-1.9-43.8-1.8-58.1,0.2c-27.2,3.7-56.3,14.1-79.2,28
			C79.2,85.2,44.1,132.5,31,186.2c-4.9,20.1-6.3,33.4-5.7,56.3c0.5,21.3,1.8,30.4,6.7,49.1c13.3,50.3,46.2,95.2,91,123.9
			c23.3,15,55.3,26.9,82.7,30.9C219.3,448.3,252.3,448.4,265.1,446.5z"/>
		<path class="st4" d="M224.2,394.9c-53.8-4.4-99.8-34.1-126.4-81.4C76.5,275.7,72.2,229.3,86,186.9c18.7-57,71.2-100,130.8-107
			c15.4-1.8,39.5-0.7,53.6,2.6c29.3,6.6,53.3,19.5,76.4,40.9c4.6,4.2,16.1,18.3,21.4,26.1c18.9,28,28.6,65,25.8,99.1
			c-2.8,35.4-15,64.7-38.1,91.9c-7,8.2-8.2,9.4-18.4,18.1c-19.1,16.3-47.7,29.7-73,34.2c-5.4,1-9.5,1.4-25.5,2.6
			C236.5,395.6,229.9,395.3,224.2,394.9z M262,388.5c62.4-10.6,111.6-58.4,125.2-121.9c3.2-14.8,3.2-43.6,0-58.8
			C364.1,97,237.7,47.1,146.3,112.6c-11.9,8.5-29.1,26.3-37.2,38.4c-18.1,27.1-26.2,53.9-26.3,86.4c0,44,17.7,83.3,51.2,113.9
			c23.2,21.2,55,35.4,86.4,38.7C230.7,391.1,251,390.3,262,388.5z"/>
		<path class="st4" d="M232.2,379.3c-2.1-0.8-4.4-6.3-3.8-8.9c0.9-3.4,4.5-6.4,7.8-6.4c7,0,10.5,9.7,5.2,13.9
			C238.9,379.9,235.1,380.5,232.2,379.3z"/>
		<path class="st4" d="M221.7,357.5c-1.6-1.5-1.7-10.9-1.7-120.5V118.1l2.2-1.5c1.7-1.2,5-1.6,14.1-1.6c6.5,0,12.7,0.5,13.8,1
			c1.9,1,1.9,3.5,1.9,121c0,94.8-0.3,120.1-1.2,120.7c-0.7,0.4-7.2,1-14.4,1.1C225.2,359.1,223.1,358.9,221.7,357.5z"/>
		<path class="st4" d="M264.1,354.6c-0.8-0.9-1-36.5-0.9-118.2c0.3-111,0.4-116.9,2.1-117.2c2.9-0.6,14.4,3.5,26.2,9.3
			c24.8,12.1,42.5,30.3,54.7,56.3c5.5,11.7,6.9,16.9,4.7,18.3c-0.8,0.5-7.7,0.9-15.5,0.9c-15.1,0-16.2-0.3-17.8-5.7
			c-1.3-4.1-10.3-16.9-16.4-23.4l-6.1-6.4l-0.1,26.3V221h22.9c12.6,0,23.6,0.3,24.5,0.6c1.4,0.5,1.6,2.8,1.6,14.8
			c0,9.7-0.4,14.6-1.2,15.4c-0.9,0.9-7.7,1.2-24.5,1.2c-12.8,0-23.3,0.3-23.3,0.8c0,0.4-0.1,20.6-0.3,44.9
			c-0.2,51.1,0.9,46.2-11.7,51.1C270.4,354.8,265.3,356.1,264.1,354.6z"/>
		<path class="st4" d="M201,354.3c-8.7-3.1-20.4-8.2-25.4-11c-15-8.8-31.9-24.4-40.9-38c-24.4-36.7-27.4-84-7.8-123.3
			c5.7-11.3,11.2-19.1,20.5-28.9c13.9-14.5,31-25.6,48.8-31.5c10.4-3.5,11.5-3.4,12.7,1.2c1.4,4.8,1.5,60.1,0.1,63.6l-1,2.6h-14.4
			c-17.2,0-16.6,0.4-16.6-12.1v-8.3l-3.1,3c-10.9,10.2-21.2,27.2-25.1,41.4c-3,11.3-3.3,36.7-0.4,47c2.4,8.6,7.4,19.3,12.6,27.1
			c4.6,6.7,15.9,19,16.1,17.4c0-0.6,0-3.9-0.1-7.5c-0.1-3.6,0.3-7.8,0.9-9.3l1.1-2.7h14.5c14.2,0,14.6,0.1,15.5,2.3
			c1.2,3,1.2,62.1,0,65.2C208.1,355,204.9,355.7,201,354.3z"/>
		<path class="st4" d="M96.3,243.5c-2.9-2.1-3.8-6.6-1.9-10.3c3.8-7.4,14.6-4.3,14.6,4.2C109,243.5,101.5,247.1,96.3,243.5z"/>
		<path class="st4" d="M367.2,244.3c-2.2-0.9-4.4-6.3-3.7-9.4c2-9.1,15.5-6.9,15.5,2.5C379,242.9,372.7,246.6,367.2,244.3z"/>
		<path class="st4" d="M232.2,109.3c-0.7-0.3-1.9-1.8-2.8-3.5c-4.2-8.1,5.8-15.7,12.1-9.3C247.8,102.7,240.6,112.7,232.2,109.3z"/>
	</g>
	<g id="layer105">
		<path class="st5" d="M222.3,457.3c0.9-0.2,2.5-0.2,3.5,0c0.9,0.3,0.1,0.5-1.8,0.5C222.1,457.8,221.3,457.6,222.3,457.3z"/>
		<path class="st5" d="M247.3,457.3c0.9-0.2,2.5-0.2,3.5,0c0.9,0.3,0.1,0.5-1.8,0.5C247.1,457.8,246.3,457.6,247.3,457.3z"/>
		<path class="st5" d="M141,448c0-1.1,0.5-2,1-2c0.6,0,1,0.9,1,2s-0.4,2-1,2C141.5,450,141,449.1,141,448z"/>
		<path class="st6" d="M234.6,434.3c-0.3-3.2-0.8-10.1-1.2-15.5l-0.6-9.6l14.3-0.8c7.9-0.5,14.8-0.9,15.4-0.9c0.5,0,1.1,0.7,1.3,1.6
			c0.2,1.4-1.7,1.7-13,2.5l-13.3,0.9l-0.3,4.9l-0.3,4.8l13-0.7c11.2-0.6,13.1-0.5,13.1,0.7c0,1.7-7.6,2.8-18.6,2.8H238v5.6v5.5
			l13.7-0.3c9.4-0.2,13.7,0,14,0.8c0.3,0.8-2.8,1.4-9.4,1.8c-5.4,0.4-12.3,0.9-15.4,1.2l-5.7,0.6L234.6,434.3z"/>
		<path class="st6" d="M204.5,437.3c-5.5-0.8-13.5-3.4-15-4.9c-0.8-0.9-1.5-3-1.5-4.9c0-2.8,0.3-3.2,2-2.8c1.3,0.3,2,1.4,2,2.8
			c0,3.2,1.7,4.3,9.9,6c12.8,2.7,17.6,1.4,16.9-4.4c-0.4-3.2-3.2-4.6-11.4-6c-15.4-2.4-18.7-4.9-16.5-12.2c1.8-6,4-6.6,16.8-4.7
			c12.2,1.8,15.6,3.7,16.1,8.7c0.3,2.7,0,3.2-1.4,2.9c-1-0.1-1.7-0.7-1.7-1.3c0.2-1.9-1.9-4.6-4.2-5.5c-1.3-0.5-6-1.4-10.5-2
			c-7.3-1-8.4-0.9-10.1,0.6c-2.2,2-2.5,5.7-0.6,7.2c0.6,0.5,5.3,1.8,10.2,2.7c16.6,3.1,19.8,6,15.8,14.3c-1.8,3.6-1.9,3.7-7.8,3.8
			C210.2,437.7,206.2,437.5,204.5,437.3z"/>
		<path class="st6" d="M280.9,431.4c-2.7-3-4.7-7.7-6.5-14.8c-1.5-6.2-1.5-6.8,0-9.2c1.9-2.9,6.5-5,18-8.3
			c8.8-2.6,11.1-2.2,13.6,2.3c1.2,2.4,1.2,2.8,0,3.6c-1.1,0.7-2,0.3-3.3-1.5c-1-1.4-2.8-2.5-4-2.5c-2.9,0-19.6,5.5-21,6.9
			c-2.3,2.3,3.4,20.4,6.8,21.7c2,0.8,20.9-5.1,22.5-7.1c0.7-0.8,1-2.8,0.8-4.5c-0.4-2.4-0.1-3,1.4-3c1.9,0,3.2,3.4,2.6,6.6
			c-0.5,2.7-5.9,5.9-14.1,8.4C287.2,433.3,282.9,433.6,280.9,431.4z"/>
		<path class="st5" d="M123,431.2c0-1.4,3.9-3.2,4.5-2.2c0.4,0.6,0.1,0.9-0.7,0.8c-0.7-0.2-1.2,0.3-1,1c0.1,0.6-0.5,1.2-1.3,1.2
			C123.7,432,123,431.7,123,431.2z"/>
		<path class="st5" d="M114.5,427c0.3-0.5,0.1-1-0.4-1c-0.6,0-1.1-0.4-1.1-1c0-1.5,2.7-1.2,3.3,0.4c0.6,1.5-0.1,2.6-1.5,2.6
			C114.3,428,114.2,427.6,114.5,427z"/>
		<path class="st6" d="M133.1,411.1c-1.1-0.7-0.8-1.9,1.8-6c1.7-2.8,3.1-5.9,3.1-6.9c0-0.9-1.1-6-2.5-11.2
			c-3.1-11.8-3.1-12.4-0.6-10.8c1.4,0.9,2.6,4,4.2,11c1.7,7.4,2.6,9.8,3.8,9.8c0.9,0,5.4-1.1,10-2.5c7.1-2,8.9-2.2,10.8-1.1
			c2.1,1.1,1.2,1.5-10,4.5l-12.3,3.3l-2.9,5.4C135.4,412.3,135.3,412.5,133.1,411.1z"/>
		<path class="st6" d="M331.6,399.5c-6.6-10.9-7-11.4-9-10.2c-7.6,4.9-11.5,6.7-12.1,5.7c-1-1.6-0.5-2,15-11.4
			c11.3-6.8,14.2-8.1,14.8-6.9c0.5,0.8,0.7,1.6,0.5,1.7c-0.1,0.2-2.9,1.7-6,3.5c-3.2,1.8-6,3.5-6.2,3.9c-0.3,0.4,2.7,5.9,6.5,12.1
			c3.8,6.2,6.6,11.7,6.3,12.2C340,412.4,338,410.2,331.6,399.5z"/>
		<path class="st5" d="M375.5,409.1c0.1-0.9,0.5-1.5,0.8-1.3c0.4,0.1,1.4,0.2,2.3,0.2c2,0,1,1.6-1.5,2.3
			C375.8,410.6,375.3,410.3,375.5,409.1z"/>
		<path class="st5" d="M81,394.6c-4.1-4.1-7.9-7.2-8.7-6.9c-0.7,0.3-1.3,0-1.3-0.6c0-2.6,3-0.6,10.5,6.9c4.4,4.4,7.7,8,7.4,8
			C88.7,402,85.1,398.7,81,394.6z"/>
		<path class="st6" d="M359.3,389.2c-2.1-2.6-6.4-7.8-9.5-11.6c-5.5-6.5-6.3-8.6-3.4-8.6c1.4,0,19.6,21.6,19.6,23.3
			c0,0.3-0.7,0.7-1.5,1C363.6,393.7,361.7,392.2,359.3,389.2z"/>
		<path class="st6" d="M219.5,385.3c-24.8-3.2-47.5-11.8-68-25.6c-12.4-8.4-30.3-26.5-38.8-39.2c-11.2-17-18.5-34.4-22.9-54.9
			c-3.2-14.8-3.1-42.7,0.1-57.6c6.3-29.5,19.8-54.7,40.1-75c9.8-9.9,24.6-22,26.8-22c0.6,0,1.2-0.4,1.4-0.8
			c0.7-1.9,21.7-11.6,32.6-15.2c27.1-8.8,59.4-9.3,87.2-1.2c54.9,16,96.9,63.8,105.6,120.2c1.7,11.5,1.9,31.7,0.4,43.1
			c-7,52-41.9,97.4-90.1,117.3c-12.3,5.1-27.2,9.1-38.9,10.6C247,385.9,226,386.2,219.5,385.3z M242.9,379.4
			c1.9-1.5,3.1-3.5,3.1-4.9c0-2.6,0.1-2.6,11.3-4c12.8-1.7,31.9-8.1,43.6-14.7c38.5-21.8,63.1-57.3,69.3-100.4
			c0.8-5.4,1.6-8.4,2.5-8.4c3.1,0,6.3-2.6,7.7-6.2c1.4-3.3,1.4-4.3,0.2-7.2c-1.5-3.5-5-6.6-7.6-6.6c-1.1,0-1.9-2.5-3.2-10.8
			c-4.8-29.2-17.4-53.9-38.3-74.7c-18.8-18.9-40.3-30.6-66.7-36.5c-4.8-1.1-10.5-2-12.6-2c-4.1,0-6.2-1.4-6.2-4.1
			c0-1-1.4-2.9-3.2-4.4c-2.7-2.3-3.9-2.6-7.5-2.2c-5.1,0.5-7.9,2.7-8.8,6.8c-0.6,2.5-1.2,2.9-5.3,3.5c-35.2,4.9-62.8,19.3-86.3,45
			c-16,17.6-29,45.3-32,68.4c-1.5,10.9-1.5,11-3.8,11c-1.1,0-3.3,1.1-4.8,2.4c-2.4,2.1-2.8,3.2-2.8,7.6c0,4.4,0.4,5.5,2.8,7.6
			c1.5,1.3,3.7,2.4,4.7,2.4c2.1,0,2-0.4,4.4,14c4.2,25.8,16.5,49.7,35.9,69.7c22.6,23.3,49.7,36.7,82,40.6c4.4,0.6,4,0.2,5.7,4.5
			C229.5,382.1,237.5,383.9,242.9,379.4z"/>
		<path class="st6" d="M221.7,357.3c-1.6-1.8-1.7-9.3-1.7-120.6V118l2.5-1.6c3.3-2.2,27.1-1.7,28.5,0.6c0.6,0.9,1,47.3,1,120.1
			c0,109.1-0.1,118.8-1.7,120c-1.1,1-5.4,1.5-14.2,1.7C224.7,359.2,223.3,359,221.7,357.3z M248.5,353.9c0.4-1.2,0.4-54.2,0-117.9
			l-0.8-115.9l-10.4-0.3c-5.8-0.2-11,0-11.6,0.4c-0.6,0.3-1.1,3.9-1.3,8c-0.6,22.5-1.5,223.8-1,225.6c0.7,2.1,1.3,2.2,12.6,2.2
			C247.2,356,247.9,355.9,248.5,353.9z"/>
		<path class="st6" d="M192,350.8c-17.9-7.1-32.4-17-45.5-31.1c-15.5-16.6-25.1-35.4-30.1-58.7c-2.3-10.7-2.6-36.2-0.5-46.5
			c8.6-43.3,39.2-78.8,80.3-92.9c8.7-3,11.3-3.2,12.2-1.1c0.9,2.5,0.8,66.7-0.2,67.7c-0.5,0.5-7.3,0.7-15.3,0.6l-14.4-0.3l-0.3-9.7
			c-0.1-5.4-0.6-9.8-1.1-9.8c-1.2,0-11.1,10.7-15.3,16.6c-5.4,7.4-11.5,20.5-13.5,29.3c-2.6,10.9-2.5,37.2,0.1,45.6
			c3,9.9,6.5,17.4,11.4,24.8c4.8,7.3,15.7,19.7,17.4,19.7c0.5,0,0.8-4.1,0.7-9.1c-0.1-5,0.3-9.5,0.8-10s7.2-0.8,15.4-0.7l14.4,0.3
			l0.5,32.8c0.3,18.1,0.2,33.7-0.2,34.8C207.7,356,203.8,355.5,192,350.8z M205.8,319.7L206,288h-12.5c-9.3,0-12.5,0.3-12.6,1.3
			c0,0.6,0,5.1,0.1,9.8c0.1,7-0.2,8.8-1.6,10c-1.3,1.1-1.8,1.1-2.1,0.2c-0.3-0.7-1.3-1.3-2.4-1.3c-1,0-1.9-0.7-1.9-1.5
			c0-0.9-0.7-1.8-1.5-2.1c-0.8-0.4-1.2-1-0.9-1.5s-0.2-0.9-1-0.9c-0.9,0-1.6-0.4-1.6-0.9s-1.7-2.7-3.7-4.9c-2.1-2.2-4.5-5-5.3-6.2
			c-0.8-1.2-2.1-2.8-2.7-3.6c-0.7-0.7-1.3-1.9-1.3-2.7c0-0.8-0.9-2.4-2-3.7c-1.1-1.3-2.3-3.5-2.7-4.9c-0.3-1.4-1.4-4.3-2.4-6.3
			c-1.1-2.1-1.9-4.9-1.9-6.3s-0.4-2.5-0.9-2.5c-1.5,0-2.1-6.1-2.1-19.1c0.1-6.8,0.1-14.3,0-16.6c-0.1-6.2,5-25.1,7.5-27.6
			c0.6-0.7,1.4-2.3,1.8-3.7c0.6-2.3,1.5-3.7,5.7-9c0.8-1,2.2-2.8,3-4.1c3.3-4.9,14.7-15.6,17.3-16.3l2.7-0.6v10.3
			c0,12.6,0,12.6,14.3,11.9l9.7-0.4v-30.4V124h-2.5c-1.4,0-3.3,0.4-4.3,0.9c-0.9,0.5-3,1.4-4.7,2.1c-1.6,0.7-3.8,1.6-4.7,2.1
			c-1,0.5-2.5,0.9-3.3,0.9s-1.5,0.5-1.5,1c0,0.6-0.7,1-1.5,1c-0.9,0-2.5,0.9-3.7,2c-1.2,1.1-3,2-4,2s-1.8,0.5-1.8,1
			c0,0.6-0.6,1-1.3,1c-0.7,0-1.9,0.9-2.7,2c-0.8,1.1-2,2-2.6,2c-0.6,0-2.5,1.3-4.2,3c-1.8,1.6-3.3,3-3.5,3c-0.8,0-11.4,10.9-13,13.3
			c-1,1.5-2.4,2.7-3.2,2.7s-1.5,0.9-1.5,2c0,1.1-0.4,2-0.9,2s-1.7,1.7-2.6,3.7c-1.7,3.5-2.5,4.7-5.3,7.8c-0.7,0.8-1.1,1.5-0.8,1.5
			c0.4,0-0.8,2.8-2.5,6.3c-1.8,3.4-4.5,10.7-6.1,16.2c-1.7,5.5-3.4,11.4-3.9,13c-0.5,1.7-1.2,8.6-1.5,15.5c-0.6,12.7,0.8,25.3,4,36
			c0.8,2.5,2,6.6,2.7,9.3c0.7,2.6,1.7,4.7,2.1,4.7c0.4,0,0.8,0.7,0.8,1.5c0,3.2,8.5,18.6,13.3,23.9c0.9,1.1,1.7,2.6,1.7,3.3
			c0,0.7,0.6,1.3,1.3,1.3s1.9,1,2.7,2.1c1.9,2.7,8.7,9.9,9.3,9.9c0.3,0,2.3,1.8,4.5,4c2.1,2.2,4.4,4,5,4c0.7,0,1.2,0.5,1.2,1
			c0,0.6,0.6,1,1.3,1s1.9,0.9,2.7,2s2,2,2.7,2c0.7,0,1.3,0.5,1.3,1c0,0.6,0.8,1,1.8,1s2.8,0.9,4,2s2.6,2,3.2,2
			c0.6,0,1.8,0.4,2.8,0.9c5.8,2.9,17.2,7,18.7,6.7C205.1,351.4,205.6,339.7,205.8,319.7z"/>
		<path class="st6" d="M263.8,354.4c-0.5-0.4-0.8-53.3-0.8-117.6c0-107,0.1-116.9,1.6-117.5c2.2-0.8,13.8,2.9,24.3,7.8
			c17.7,8.2,33.2,20.9,45.3,37.2c9.3,12.5,19.7,35.2,17.2,37.6c-1.1,1.1-29.5,1.8-31.2,0.7c-0.6-0.4-2-2.7-3.1-5.1
			c-2.9-6.7-8.9-15.2-15.5-22.2c-3.2-3.5-6.1-6.3-6.5-6.3c-0.3,0-0.6,11.7-0.6,26v26h23.2c12.7,0,23.8,0.3,24.7,0.6
			c1.4,0.5,1.6,2.8,1.6,14.8c0,9.7-0.4,14.6-1.2,15.4c-0.9,0.9-7.8,1.2-25,1.2H294v45.3c0,42-0.1,45.5-1.7,46.9
			c-2.2,1.9-19.7,8.7-24.4,9.4C266,354.9,264.2,354.8,263.8,354.4z M272,350c1.6,0,3.2-0.4,3.5-1c0.3-0.5,1.7-1,3-1
			c1.3,0,2.7-0.4,3-1c0.3-0.5,1.6-1,2.9-1c1.2,0,3.2-0.9,4.4-2c2.2-2.1,2.2-2.1,2.2-45.5c0-25.5,0.4-44.4,1-45.9l0.9-2.6l23.8-0.2
			l23.8-0.3l0.3-11.1c0.2-8.8,0-11.4-1.2-12.3c-1.6-1.3-40.7-1.8-43.9-0.5c-1,0.3-1.7,0.1-1.7-0.5c0-0.6-0.6-1.1-1.4-1.1
			s-1.7-0.8-2-1.7c-0.8-1.9-0.7-52.7,0.1-56c0.4-1.9,1.2-2.3,4.1-2.3c1.9,0,3.3,0.3,2.9,0.6c-0.6,0.7,5.7,7.4,7,7.4
			c0.5,0,1.9,1.8,3.3,4s3,4,3.7,4c0.7,0,1.3,0.6,1.3,1.3s1.6,3.7,3.6,6.7s4.1,6.7,4.6,8.2c0.6,1.6,1.4,2.5,1.9,2.2
			c0.5-0.3,0.9,0,0.9,0.5c0,1.7,22,1.5,22.1-0.1c0.3-3.7-0.7-7.1-4.6-14.8c-6.4-12.8-13.1-22.4-14.9-21.2c-0.5,0.3-0.6,0-0.2-0.7
			c0.4-0.6-1.3-3-4.1-5.9c-2.7-2.6-5.2-5.5-5.6-6.4c-0.3-1-1.4-1.8-2.4-1.8s-2.4-0.9-3.1-2c-0.7-1.1-1.8-2-2.5-2
			c-0.7,0-1.9-0.9-2.7-2c-0.8-1.1-2-2-2.7-2c-0.7,0-1.3-0.4-1.3-0.9s-1.5-1.5-3.2-2.2c-1.8-0.7-4.2-2.1-5.2-3.1
			c-1.1-1-2.8-1.8-3.8-1.8s-1.8-0.4-1.8-1c0-0.5-0.7-1-1.5-1c-0.9,0-3.5-0.9-5.7-2c-2.3-1.1-5-2-5.9-2c-1,0-2.1-0.4-2.4-1
			c-0.9-1.4-5.5-1.2-5.4,0.3c0.3,7.9-1.3,214.4-1.7,218.2c-0.5,4.2-0.3,5.5,1.2,6.9c1.1,1.2,1.9,1.5,2.2,0.7
			C269,350.5,270.5,350,272,350z"/>
		<path class="st6" d="M95.4,381.9c-0.4-0.6,3.3-5.1,8.7-10.5l9.3-9.3l-2-2.2c-1-1.3-3.4-3.6-5.2-5.2c-2.9-2.6-4.1-6.3-1.9-5.9
			c0.4,0,6.4,5.4,13.2,12c9.5,9.1,12.1,12.2,11.3,13c-0.9,0.9-2.5-0.1-6.8-4.3l-5.6-5.5l-9.3,9.5c-5.2,5.2-9.7,9.5-10.2,9.5
			C96.5,383,95.8,382.5,95.4,381.9z"/>
		<path class="st6" d="M368.4,376.3c-10.5-7.9-13-12.3-10.2-17.6c2.3-4.3,15.2-18.8,18-20.3c2.7-1.4,3.3-1.3,7.1,0.5
			c5.3,2.6,14.5,11.3,15.3,14.5c0.7,3.1-0.5,5.5-7.3,13.8C379.9,381.2,376.5,382.6,368.4,376.3z M382.8,372.3
			c7.9-8.5,12.2-14.4,12.2-16.8c0-3-12.3-14.5-15.5-14.5c-1.5,0-4.3,2.1-8.1,6.2c-6.1,6.7-11.4,13.6-11.4,14.9
			c0,2.8,13.7,14.9,16.8,14.9C377.6,377,380.3,374.9,382.8,372.3z"/>
		<path class="st5" d="M406.3,378.5c0-0.8,1-2.3,2.1-3.2c2.1-1.8,2.1-1.8,0.4,0.2c-0.9,1.1-1.7,2.4-1.6,2.8c0,0.5-0.2,1.1-0.4,1.3
			C406.5,379.8,406.3,379.3,406.3,378.5z"/>
		<path class="st5" d="M423,371c0-0.5,0.9-1,2-1s2,0.5,2,1c0,0.6-0.9,1-2,1S423,371.6,423,371z"/>
		<path class="st5" d="M55.3,366.1c0-1.1,0.5-1.7,0.9-1.5c1.1,0.7,1,3.4-0.1,3.4C55.5,368,55.2,367.1,55.3,366.1z"/>
		<path class="st5" d="M417.2,366.6c1-0.7,1.5-1.6,1.1-2c-0.4-0.4,0-0.4,1,0c1.4,0.5,1.5,0.9,0.6,2c-0.6,0.8-1.9,1.4-2.8,1.4
			C415.7,367.9,415.7,367.8,417.2,366.6z"/>
		<path class="st6" d="M75.4,359.8c-0.8-1.3,0.1-2.1,13.5-12.3c10.5-8,10.7-8.1,11.4-6c0.5,1.1-2.8,4-11.3,10.5
			c-6.6,4.9-12.1,9-12.4,9C76.3,361,75.8,360.5,75.4,359.8z"/>
		<path class="st6" d="M65.8,344.9c-2.8-1.6-12.1-19-12.6-23.6c-0.4-3.9-0.2-4.3,3.9-7.3c5.7-4.2,13.7-8,17-8c3.3,0,5.7,2.6,11.4,13
			c5.6,9.9,6.2,14.2,2.5,17.1c-3.1,2.3-3.6,2.3-4.4,0.3c-0.4-1.1,0.1-2.2,1.4-3.1c2.8-2,2.6-3.4-2.1-12.3
			c-5.1-9.9-6.8-11.5-11.1-10.6c-4.4,1-15.2,7.7-15.6,9.8c-0.4,2,6.1,15.4,9.4,19.5c2,2.6,2.5,2.7,5.4,1.6c2.6-1,3.2-0.9,3.7,0.4
			C75.9,344.9,69.7,347.2,65.8,344.9z"/>
		<path class="st6" d="M397,333.9c-6.8-3.3-12.6-6.1-12.7-6.3c-0.2-0.2,0.1-1.4,0.7-2.8c0.9-1.9,4.6-3.7,19.1-9.2
			c9.8-3.8,17.9-7.3,17.9-7.7c0-0.5-0.4-0.9-0.9-0.9s-5.9-2.4-12-5.3c-8.2-3.9-10.8-5.6-10.2-6.6c0.5-0.8,1.6-1.1,3-0.6
			c3,0.9,25.1,11.5,25.1,12c0,0.2-0.5,1.4-1.1,2.7c-0.8,1.8-4.7,3.7-17.9,8.7c-9.3,3.5-17.4,6.7-18.1,7.2c-0.9,0.5,2.7,2.7,10.4,6.3
			c7.4,3.5,11.7,6.1,11.7,7.1C412,340.8,410.4,340.4,397,333.9z"/>
		<path class="st5" d="M455,289.8c0-1.9,0.2-2,1-0.8c1.3,1.9,1.3,3,0,3C455.5,292,455,291,455,289.8z"/>
		<path class="st5" d="M456.3,252.5c0-2.2,0.2-3,0.4-1.7c0.2,1.2,0.2,3,0,4C456.4,255.7,456.2,254.7,456.3,252.5z"/>
		<path class="st5" d="M15.4,237c0-6.3,0.1-8.9,0.3-5.7c0.2,3.1,0.2,8.3,0,11.5C15.5,245.9,15.4,243.3,15.4,237z"/>
		<path class="st6" d="M406.1,210.2c-4.3-4.3-9.8-29.1-7.3-32.8c0.4-0.6,2.1-1.9,3.9-2.8l3.2-1.6l1.1,4.2c0.9,3.2,0.9,4.7-0.1,6.5
			c-1,1.9-1,3.6,0,8.4c1.8,8.8,2.8,10.9,5.1,10.9c2.5,0,2.5-0.8,0-14c-1.2-5.8-1.8-11.5-1.5-12.7c0.7-2.9,5.4-5.3,10.4-5.3
			c5.5,0,7.3,2.6,10.5,15.4c3.4,13.6,3.4,16.8,0,19.5c-3.8,3-4.9,2.6-6.3-1.9c-0.9-3.1-0.9-4.4,0.1-5.9c1-1.7,0.9-3.4-0.7-9.8
			c-1.7-6.7-2.3-7.8-4-7.5c-1.1,0.2-2.2,0.6-2.4,0.8s0.5,4.6,1.7,9.8c2.3,9.9,2.7,15.2,1.4,17.3c-1,1.6-7.5,4.3-10.2,4.3
			C409.8,213,407.6,211.7,406.1,210.2z"/>
		<path class="st6" d="M55,197.2c-8-2.5-14.6-4.6-14.8-4.8c-0.8-0.6,2.3-8.4,3.3-8.4c0.7,0,5.8,1.4,11.4,3.1s10.3,3,10.5,2.8
			c0.1-0.2,1.5-4.8,3.1-10.1c1.5-5.4,3.3-9.8,3.9-9.8c0.6,0.1,2.3,0.6,3.8,1.3l2.6,1.2l-4.2,14.3c-2.4,7.8-4.5,14.4-4.7,14.6
			C69.7,201.5,63,199.6,55,197.2z"/>
		<path class="st6" d="M384.4,154.8c-4.3-7.9-8-14.8-8.2-15.4c-0.1-0.6,1-1.6,2.5-2.3s7.7-4,13.6-7.3c5.9-3.3,10.9-5.9,11.1-5.7
			c0.7,0.8,16.6,29.7,16.6,30.1c0,0.7-6,3.2-6.4,2.7c-0.2-0.2-2.9-5-6.1-10.6c-5.3-9.6-7.5-11.8-9-9.3c-0.4,0.6,1.9,5.6,5,11.2
			c5.3,9.5,5.6,10.3,3.9,11.5c-3.7,2.7-3.9,2.4-11.8-12c-3.4-6.2-3.9-6.6-5.9-5.6c-1.2,0.7-2.4,1.3-2.6,1.5s2.4,5.3,5.8,11.5
			c3.5,6.1,6.1,11.2,5.9,11.3c-0.9,0.8-4.8,2.6-5.6,2.6C392.7,169,388.7,162.6,384.4,154.8z"/>
		<path class="st6" d="M70.7,159.7c-3.2-1.7-7.3-4.5-9.2-6c-6-4.8-4.9-9.3,6.1-26.3c2.9-4.6,6.3-8.8,7.5-9.4c3.3-1.8,8-0.6,15.2,3.9
			c7,4.5,9.7,7.6,9.7,11.4c0,3.1-12,23.3-16.1,27C80.1,163.8,77.8,163.7,70.7,159.7z M84.1,146.2c7.4-11.5,7.3-12.9-0.8-17.3
			l-4.5-2.4l-2.6,3.2c-1.5,1.7-4.2,5.7-6.1,8.7c-3.1,5.3-3.2,5.7-1.8,8c1.7,2.6,9.3,6.7,11.1,6C80,152.2,82.1,149.4,84.1,146.2z"/>
		<path class="st5" d="M443,146c0-1.1,0.5-2,1-2c0.6,0,1,0.9,1,2c0,1.1-0.4,2-1,2C443.5,148,443,147.1,443,146z"/>
		<path class="st5" d="M39,134c-1.2-0.8-1.2-1,0.3-1.6c1-0.3,2.1-0.4,2.4,0c0.4,0.3,0.1,0.6-0.6,0.6c-0.7,0-0.9,0.5-0.6,1
			C41.3,135.2,40.9,135.2,39,134z"/>
		<path class="st6" d="M360.4,121.8l-10.1-11.1l7-6.6c3.8-3.6,9-8.5,11.6-10.8l4.6-4.3l2.7,3.3c1.5,1.7,2.8,3.5,2.8,3.9
			c0,0.3-3.6,3.9-8,7.9c-4.4,3.9-8,7.5-8,7.8c0,0.7,3.3,4.5,9.9,11.4l4.6,4.7l-3,2.5c-1.7,1.3-3.2,2.4-3.5,2.4
			C370.7,132.9,366,127.8,360.4,121.8z"/>
		<path class="st5" d="M425.3,121.8c-0.7-0.8-0.8-1.9-0.3-2.8c0.8-1.2,1-1.2,1.5,0.2C427.5,121.8,426.7,123.5,425.3,121.8z"/>
		<path class="st6" d="M103.4,119.6l-2.9-2.5l3.5-3c2.2-1.9,4.2-2.8,5.5-2.5c1.5,0.4,3.8-1.1,8.3-5.1c3.4-3.1,6.2-6.3,6.2-7.1
			c0-3.5-3.3-2.1-12.1,5c-9.8,8-12.5,9-16.7,6c-2.6-1.8-5.2-6.4-5.2-9.2c0-4.5,20.1-22.2,25.1-22.2c2.6,0.1,5.9,2.1,5.9,3.7
			c0,1.9-5.9,6.6-7.5,5.9c-2-0.7-13.7,10-13.3,12.3c0.5,2.6,2.2,2.2,6.3-1.4c6.4-5.7,15.6-12.5,16.8-12.5c4.7,0,11.4,8.2,10.3,12.4
			c-0.6,2.4-10.5,12.5-17.6,18C109.7,122.3,107,122.7,103.4,119.6z"/>
		<path class="st5" d="M416.5,107.3c0.1-2.1,0.7-2.9,2.3-3.1c1.2-0.2,2.2,0,2.2,0.5c0,1.2-2,4-2,2.9c0-0.6-0.6-0.2-1.3,0.8
			C416.6,110,416.4,109.8,416.5,107.3z"/>
		<path class="st5" d="M55.5,108c-0.4-0.6-1.1-0.8-1.6-0.5c-2.1,1.4,0.5-2.5,2.8-4c2.4-1.6,2.4-1.6,1.3,0.4
			c-0.6,1.2-1.5,2.1-2.1,2.1c-0.6,0-0.7,0.5-0.4,1c0.4,0.6,1.1,0.7,1.7,0.4c0.7-0.4,0.8-0.2,0.4,0.4C56.7,109.3,56.3,109.3,55.5,108
			z"/>
		<path class="st6" d="M330.5,96.3c-6.6-4.3-13.1-8.5-14.3-9.5l-2.4-1.6l8.2-12.9c4.6-7,8.4-13,8.6-13.1
			c0.2-0.4,23.4,14.1,27.8,17.3c1.8,1.4,1.8,1.5,0,4.4l-1.9,3L345.8,77c-10.3-6.6-10.8-6.8-11.9-4.9c-0.6,1.1-0.9,2.2-0.7,2.3
			c0.2,0.2,4.4,2.9,9.3,6.1c5,3.1,9.1,5.8,9.3,6c0.1,0.1-0.3,1.4-0.9,2.9c-1.5,3.2-1.6,3.2-13.1-4.1c-8.5-5.4-8.9-5.5-10.3-3.7
			c-0.8,1-1.5,2.2-1.5,2.5c0,0.3,4.7,3.6,10.5,7.3l10.5,6.7l-1.5,3c-0.9,1.6-1.9,2.9-2.3,2.9S337.1,100.5,330.5,96.3z"/>
		<path class="st5" d="M47,101c0-0.5,0.9-1,2-1c1.1,0,2,0.5,2,1c0,0.6-0.9,1-2,1C47.9,102,47,101.6,47,101z"/>
		<path class="st5" d="M403.5,93.2c-1.6-2-2.1-3-1-2.1c1.1,0.9,2.6,1.4,3.3,1.2c0.7-0.3,1.2,0.5,1.2,2.1c0,1.4-0.1,2.6-0.2,2.5
			C406.6,96.9,405.2,95.2,403.5,93.2z"/>
		<path class="st5" d="M61,90c0-1.1,0.5-2,1-2c0.6,0,1,0.9,1,2s-0.4,2-1,2C61.5,92,61,91.1,61,90z"/>
		<path class="st5" d="M76.2,84.5c0.8-1.1,1.4-3,1.2-4.2c-0.3-1.5,0.1-2.3,1.1-2.3c0.9,0,1.2,0.6,0.8,1.8c-0.5,1.3,0,1.1,2-0.7
			c4.7-4.2,2.9-1.7-2,2.9C76.7,84.5,75.3,85.6,76.2,84.5z"/>
		<path class="st5" d="M392.5,80.5c-1.8-1.8-2.4-3-1.7-3.7c0.6-0.6,1.9-0.1,3.7,1.7c1.8,1.8,2.3,3.1,1.7,3.7
			C395.5,82.9,394.3,82.3,392.5,80.5z"/>
		<path class="st6" d="M165,80.3c0-1.3,7.1-33.7,7.4-34.1c0.2-0.1,2.9-1,6-1.9l5.6-1.6l12.5,12.4c6.9,6.7,12.2,12.6,11.7,12.9
			c-0.4,0.4-2.7,1.3-5.1,2c-4.1,1.3-4.4,1.3-6.1-1l-1.8-2.4l-6.8,2.2c-3.8,1.1-8.1,2.4-9.6,2.7c-2,0.5-2.8,1.5-3.2,4
			c-0.6,2.9-1.2,3.4-5.1,4.4C165.3,81.2,165,81.2,165,80.3z M183.1,62.9c1.9-0.6,4-1.3,4.8-1.5c1-0.3,0.1-1.8-3-5l-4.4-4.5l-1.2,4.8
			C177.2,64.7,177.3,64.8,183.1,62.9z"/>
		<path class="st6" d="M296.5,78.5c-0.5-0.2-4.8-1.5-9.5-3c-16.7-5.1-18.5-7.3-15.6-18.9C275.5,40.5,279,39.2,300,46
			c11.3,3.7,14.5,6.4,13.6,11.8c-0.3,1.9-0.7,3.6-0.9,3.8c-1,1-8.1-2.3-8.9-4.2c-1.1-2.4-13.6-6.8-17.8-6.3c-2.8,0.4-5,4.1-5.7,9.9
			l-0.5,3.8l8.1,2.7c8,2.6,12.1,3,12.8,1c0.2-0.6-2-1.8-4.9-2.6c-5-1.5-5.3-1.8-5-4.5c0.2-1.6,0.5-3,0.6-3.1
			c0.3-0.3,19.8,5.7,20.3,6.1c0.8,0.7-3.3,10.4-5,12.4C304.8,78.8,299.9,79.7,296.5,78.5z"/>
		<path class="st5" d="M82,75c0-0.5,1.2-1,2.6-1c1.4,0,2.3,0.4,1.9,1c-0.3,0.6-1.5,1-2.6,1C82.9,76,82,75.6,82,75z"/>
		<path class="st5" d="M381.4,70.8l-2.9-3.3l3.3,2.9c3,2.8,3.7,3.6,2.9,3.6C384.5,74,383.1,72.5,381.4,70.8z"/>
		<path class="st5" d="M87.6,70.3C86.4,69.1,87,68,88.9,68c2.4,0,3.5,2.5,1.1,2.7C89,70.8,87.9,70.6,87.6,70.3z"/>
		<path class="st6" d="M235.5,55.8l-9-12.1l-0.3,11.7L225.9,67h-5.1h-5.1l0.7-5.2c0.3-2.9,0.6-9.9,0.6-15.5V36h7.8l7.7,0.1l8.5,11.5
			c8.2,11.2,8.5,11.4,8.7,8.2c0.2-1.8,0.6-7,0.9-11.5l0.6-8.3h4.4h4.4v16v16h-7.7h-7.8L235.5,55.8z"/>
		<path class="st5" d="M102.1,60.1c-1-0.7-1-1-0.1-1.6c0.6-0.4,1.6-0.3,2.2,0.3C105.5,60.1,103.8,61.1,102.1,60.1z"/>
		<path class="st5" d="M314.3,29.5c0-0.8,0.7-1.5,1.5-1.5c0.7,0,1.2,0.5,1,1.2C316.2,31,314.3,31.3,314.3,29.5z"/>
	</g>
</g>
</svg>
